<?xml version="1.0" encoding="UTF-8"?>
<svg width="177px" height="30px" viewBox="0 0 177 30" version="1.1" xmlns="http://www.w3.org/2000/svg" xmlns:xlink="http://www.w3.org/1999/xlink">
    <!-- Generator: Sketch 52.6 (67491) - http://www.bohemiancoding.com/sketch -->
    <title>Group 3</title>
    <desc>Created with Sketch.</desc>
    <g id="First-test" stroke="none" stroke-width="1" fill="none" fill-rule="evenodd">
        <g id="Retargeting---B2C---Acc---728-x-90---OPT2---2" transform="translate(-538.000000, -30.000000)">
            <g id="CTA" transform="translate(538.000000, 30.000000)">
                <g id="Group-3">
                    <rect id="Rectangle-4-Copy-8" stroke="#15B9ED" stroke-width="1.80120072" fill="#FFFFFF" x="0.900600361" y="0.900600361" width="175.198799" height="28.1987993" rx="14.0993996"></rect>
                    <path d="M22.0629088,10.4776747 C23.4498333,10.4776747 24.6098066,11.0702698 25.2402268,11.8645993 C25.3410941,11.9906833 25.4041361,12.1293758 25.4041361,12.2932851 C25.4041361,12.6084952 25.1897932,12.8228381 24.8619747,12.8228381 C24.622415,12.8228381 24.4585057,12.6841456 24.3324217,12.5328448 C23.7902603,11.9276413 23.0589728,11.574606 22.1385592,11.574606 C20.0959976,11.574606 19.0242832,13.0497894 19.0242832,14.8275745 C19.0242832,16.6053596 20.0959976,18.080543 22.1385592,18.080543 C23.0589728,18.080543 23.7902603,17.7275076 24.3324217,17.1223042 C24.4585057,16.9710033 24.622415,16.8323109 24.8619747,16.8323109 C25.1897932,16.8323109 25.4041361,17.0466538 25.4041361,17.3618639 C25.4041361,17.5257732 25.3410941,17.6644656 25.2402268,17.7905497 C24.6098066,18.5848792 23.4498333,19.1774742 22.0629088,19.1774742 C19.4277521,19.1774742 17.8012679,17.1853462 17.8012679,14.8275745 C17.8012679,12.4698027 19.4277521,10.4776747 22.0629088,10.4776747 Z M30.1364908,13.9828113 C30.1364908,14.2980215 29.8969311,14.5375812 29.581721,14.5375812 C28.585657,14.5375812 27.9804535,15.1932182 27.9804535,16.4666671 L27.9804535,18.5344456 C27.9804535,18.8622641 27.7282854,19.1270406 27.3878585,19.1270406 C27.0096064,19.1270406 26.7952635,18.8622641 26.7952635,18.5344456 L26.7952635,14.0584618 C26.7952635,13.7054264 27.0474316,13.4532583 27.4004669,13.4532583 C27.7408938,13.4532583 27.9804535,13.692818 27.9804535,14.0584618 L27.9804535,14.6006232 C28.1947964,13.8819441 28.7873915,13.4280415 29.581721,13.4280415 C29.9221479,13.4280415 30.1364908,13.6676012 30.1364908,13.9828113 Z M33.3054033,13.4028247 C34.8940623,13.4028247 35.9279515,14.688882 35.9279515,16.3027579 C35.9279515,16.5044924 35.8144759,16.7062268 35.4740489,16.7062268 L31.7041358,16.7062268 C31.7671779,17.5762068 32.3597729,18.2318439 33.4062705,18.2318439 C34.0619076,18.2318439 34.4527681,18.0048926 34.8688455,17.614032 C34.9697127,17.5131648 35.1084052,17.4249059 35.2597061,17.4249059 C35.5244826,17.4249059 35.7514339,17.614032 35.7514339,17.9166337 C35.7514339,18.0427178 35.6883918,18.1561934 35.600133,18.2570607 C35.1210136,18.8118305 34.2636421,19.1774742 33.3558369,19.1774742 C31.4771845,19.1774742 30.4811205,17.8662001 30.4811205,16.2901495 C30.4811205,14.6384484 31.678919,13.4028247 33.3054033,13.4028247 Z M34.8310203,15.7479881 C34.730153,14.9914838 34.1627748,14.3484551 33.3054033,14.3484551 C32.4354233,14.3484551 31.8428283,14.9662669 31.7293526,15.7479881 L34.8310203,15.7479881 Z M41.9841888,18.5344456 C41.9841888,18.8622641 41.7950627,19.1270406 41.4042021,19.1270406 C41.0511668,19.1270406 40.8242155,18.8622641 40.8242155,18.5344456 L40.8242155,18.4209699 C40.4459633,18.9000893 39.8533683,19.1774742 39.0464304,19.1774742 C37.8234151,19.1774742 36.9534351,18.484012 36.9534351,17.4753395 C36.9534351,16.3531915 37.8738487,15.7605965 39.096864,15.7605965 C39.8029347,15.7605965 40.3955297,16.025373 40.7989987,16.4036251 L40.7989987,15.8614637 C40.7989987,14.8653997 40.3829213,14.4114971 39.2859901,14.4114971 C38.7564371,14.4114971 38.3907933,14.5123644 38.037758,14.6384484 C37.9242823,14.6762736 37.7855899,14.7393157 37.6468974,14.7393157 C37.3316873,14.7393157 37.1425612,14.5249728 37.1425612,14.2475879 C37.1425612,13.9575945 37.3821209,13.8062937 37.697331,13.6802096 C38.1386252,13.503692 38.8194791,13.4028247 39.3868573,13.4028247 C41.0511668,13.4028247 41.9841888,14.2475879 41.9841888,15.7858133 L41.9841888,18.5344456 Z M40.7989987,17.4753395 C40.7989987,16.9079613 40.1181448,16.5801428 39.4498993,16.5801428 C38.6555698,16.5801428 38.1386252,16.9079613 38.1386252,17.4753395 C38.1386252,18.0427178 38.6681782,18.3705363 39.4246825,18.3705363 C40.1685784,18.3705363 40.7989987,18.0048926 40.7989987,17.4753395 Z M45.4052693,18.5344456 C45.4052693,18.8622641 45.1657096,19.1270406 44.8126743,19.1270406 C44.4596389,19.1270406 44.2200793,18.8622641 44.2200793,18.5344456 L44.2200793,14.5375812 L43.2618405,14.5375812 C42.9844556,14.5375812 42.7701127,14.3232383 42.7701127,14.0458534 C42.7701127,13.7684685 42.9844556,13.5541256 43.2618405,13.5541256 L44.2200793,13.5541256 L44.2200793,11.9024245 C44.2200793,11.574606 44.4596389,11.3098295 44.8126743,11.3098295 C45.1657096,11.3098295 45.4052693,11.574606 45.4052693,11.9024245 L45.4052693,13.5541256 L46.4895922,13.5541256 C46.7669771,13.5541256 46.98132,13.7684685 46.98132,14.0458534 C46.98132,14.3232383 46.7669771,14.5375812 46.4895922,14.5375812 L45.4052693,14.5375812 L45.4052693,18.5344456 Z M50.0367568,13.4028247 C51.6254158,13.4028247 52.659305,14.688882 52.659305,16.3027579 C52.659305,16.5044924 52.5458294,16.7062268 52.2054024,16.7062268 L48.4354893,16.7062268 C48.4985314,17.5762068 49.0911264,18.2318439 50.137624,18.2318439 C50.7932611,18.2318439 51.1841216,18.0048926 51.600199,17.614032 C51.7010662,17.5131648 51.8397587,17.4249059 51.9910596,17.4249059 C52.2558361,17.4249059 52.4827874,17.614032 52.4827874,17.9166337 C52.4827874,18.0427178 52.4197453,18.1561934 52.3314865,18.2570607 C51.8523671,18.8118305 50.9949956,19.1774742 50.0871904,19.1774742 C48.208538,19.1774742 47.212474,17.8662001 47.212474,16.2901495 C47.212474,14.6384484 48.4102725,13.4028247 50.0367568,13.4028247 Z M51.5623738,15.7479881 C51.4615066,14.9914838 50.8941283,14.3484551 50.0367568,14.3484551 C49.1667768,14.3484551 48.5741818,14.9662669 48.4607061,15.7479881 L51.5623738,15.7479881 Z M61.7835875,13.9954198 C61.7835875,14.0836786 61.7583707,14.2097626 61.7331539,14.2728047 C61.3549017,15.3193023 60.7749151,16.8449193 60.0688444,18.4714035 C59.4258157,19.9591953 58.8458291,20.7661333 57.7362895,21.3965535 C57.660639,21.4469871 57.534555,21.4848124 57.4336877,21.4848124 C57.1184776,21.4848124 56.9041347,21.2578611 56.9041347,21.005693 C56.9041347,20.7661333 57.005002,20.6400492 57.2067365,20.5139652 C57.9254155,20.0348458 58.2658425,19.6565936 58.6440946,18.9379145 L56.6771834,14.222371 C56.6519666,14.1467206 56.6267498,14.0584618 56.6267498,13.9828113 C56.6267498,13.629776 56.8789179,13.4532583 57.1563028,13.4532583 C57.4210793,13.4532583 57.5723802,13.5793424 57.660639,13.7810769 L59.2745149,17.8031581 L60.7244815,13.8819441 C60.8253487,13.5919508 60.989258,13.4532583 61.2792513,13.4532583 C61.518811,13.4532583 61.7835875,13.6045592 61.7835875,13.9954198 Z M68.1046012,16.2901495 C68.1046012,17.8788085 66.9698448,19.1774742 65.2172765,19.1774742 C63.4647082,19.1774742 62.3299517,17.8788085 62.3299517,16.2901495 C62.3299517,14.7014904 63.4647082,13.4028247 65.2172765,13.4028247 C66.9698448,13.4028247 68.1046012,14.7014904 68.1046012,16.2901495 Z M66.9194111,16.2901495 C66.9194111,15.2688687 66.3268161,14.4114971 65.2172765,14.4114971 C64.1077368,14.4114971 63.5151418,15.2688687 63.5151418,16.2901495 C63.5151418,17.3114303 64.1077368,18.1688018 65.2172765,18.1688018 C66.3268161,18.1688018 66.9194111,17.3114303 66.9194111,16.2901495 Z M69.3696445,14.0458534 C69.3696445,13.7306432 69.5839874,13.4532583 69.9622396,13.4532583 C70.3152749,13.4532583 70.5548346,13.7180348 70.5548346,14.0458534 L70.5548346,16.5675344 C70.5548346,17.4501227 71.033954,18.1057598 71.9795844,18.1057598 C72.9252147,18.1057598 73.4673762,17.4122975 73.4673762,16.554926 L73.4673762,14.0458534 C73.4673762,13.7180348 73.7195443,13.4532583 74.0599712,13.4532583 C74.4130065,13.4532583 74.6525662,13.7180348 74.6525662,14.0458534 L74.6525662,18.5218372 C74.6525662,18.9000893 74.4003981,19.1270406 74.0599712,19.1270406 C73.7321527,19.1270406 73.4673762,18.9379145 73.4673762,18.5218372 L73.4673762,18.1183682 C73.1143408,18.7992221 72.4839206,19.1774742 71.6517658,19.1774742 C70.2017993,19.1774742 69.3696445,18.1057598 69.3696445,16.617968 L69.3696445,14.0458534 Z M79.6749143,13.9828113 C79.6749143,14.2980215 79.4353546,14.5375812 79.1201444,14.5375812 C78.1240804,14.5375812 77.518877,15.1932182 77.518877,16.4666671 L77.518877,18.5344456 C77.518877,18.8622641 77.2667089,19.1270406 76.926282,19.1270406 C76.5480298,19.1270406 76.3336869,18.8622641 76.3336869,18.5344456 L76.3336869,14.0584618 C76.3336869,13.7054264 76.585855,13.4532583 76.9388904,13.4532583 C77.2793173,13.4532583 77.518877,13.692818 77.518877,14.0584618 L77.518877,14.6006232 C77.7332199,13.8819441 78.3258149,13.4280415 79.1201444,13.4280415 C79.4605714,13.4280415 79.6749143,13.6676012 79.6749143,13.9828113 Z M88.7235463,18.5344456 C88.7235463,18.8622641 88.5344202,19.1270406 88.1435596,19.1270406 C87.7905243,19.1270406 87.563573,18.8622641 87.563573,18.5344456 L87.563573,18.4209699 C87.1853209,18.9000893 86.5927258,19.1774742 85.7857879,19.1774742 C84.5627726,19.1774742 83.6927927,18.484012 83.6927927,17.4753395 C83.6927927,16.3531915 84.6132062,15.7605965 85.8362215,15.7605965 C86.5422922,15.7605965 87.1348872,16.025373 87.5383562,16.4036251 L87.5383562,15.8614637 C87.5383562,14.8653997 87.1222788,14.4114971 86.0253476,14.4114971 C85.4957946,14.4114971 85.1301508,14.5123644 84.7771155,14.6384484 C84.6636399,14.6762736 84.5249474,14.7393157 84.3862549,14.7393157 C84.0710448,14.7393157 83.8819187,14.5249728 83.8819187,14.2475879 C83.8819187,13.9575945 84.1214784,13.8062937 84.4366886,13.6802096 C84.8779827,13.503692 85.5588366,13.4028247 86.1262148,13.4028247 C87.7905243,13.4028247 88.7235463,14.2475879 88.7235463,15.7858133 L88.7235463,18.5344456 Z M87.5383562,17.4753395 C87.5383562,16.9079613 86.8575023,16.5801428 86.1892569,16.5801428 C85.3949273,16.5801428 84.8779827,16.9079613 84.8779827,17.4753395 C84.8779827,18.0427178 85.4075357,18.3705363 86.1640401,18.3705363 C86.907936,18.3705363 87.5383562,18.0048926 87.5383562,17.4753395 Z M92.926348,13.4028247 C93.7206775,13.4028247 94.5023986,13.7432517 94.8806507,14.1971542 C94.981518,14.3106299 95.0571684,14.4241055 95.0571684,14.6132316 C95.0571684,14.8653997 94.8554339,15.092351 94.515007,15.092351 C94.3006641,15.092351 94.1619717,14.9158333 94.0106708,14.7897493 C93.7206775,14.5375812 93.3550337,14.3988887 92.9389564,14.3988887 C91.7663747,14.3988887 91.1611713,15.2814771 91.1611713,16.2901495 C91.1611713,17.2988219 91.7663747,18.1814102 92.9389564,18.1814102 C93.3550337,18.1814102 93.7206775,18.0427178 94.0106708,17.7905497 C94.1619717,17.6644656 94.3006641,17.487948 94.515007,17.487948 C94.8554339,17.487948 95.0571684,17.7148992 95.0571684,17.9670673 C95.0571684,18.1561934 94.981518,18.2696691 94.8806507,18.3831447 C94.5023986,18.8370473 93.7206775,19.1774742 92.926348,19.1774742 C91.0729124,19.1774742 89.9759812,17.9040253 89.9759812,16.2901495 C89.9759812,14.6762736 91.0729124,13.4028247 92.926348,13.4028247 Z M99.007802,13.4028247 C99.8021315,13.4028247 100.583853,13.7432517 100.962105,14.1971542 C101.062972,14.3106299 101.138622,14.4241055 101.138622,14.6132316 C101.138622,14.8653997 100.936888,15.092351 100.596461,15.092351 C100.382118,15.092351 100.243426,14.9158333 100.092125,14.7897493 C99.8021315,14.5375812 99.4364878,14.3988887 99.0204104,14.3988887 C97.8478287,14.3988887 97.2426253,15.2814771 97.2426253,16.2901495 C97.2426253,17.2988219 97.8478287,18.1814102 99.0204104,18.1814102 C99.4364878,18.1814102 99.8021315,18.0427178 100.092125,17.7905497 C100.243426,17.6644656 100.382118,17.487948 100.596461,17.487948 C100.936888,17.487948 101.138622,17.7148992 101.138622,17.9670673 C101.138622,18.1561934 101.062972,18.2696691 100.962105,18.3831447 C100.583853,18.8370473 99.8021315,19.1774742 99.007802,19.1774742 C97.1543665,19.1774742 96.0574352,17.9040253 96.0574352,16.2901495 C96.0574352,14.6762736 97.1543665,13.4028247 99.007802,13.4028247 Z M107.913539,16.2901495 C107.913539,17.8788085 106.778782,19.1774742 105.026214,19.1774742 C103.273646,19.1774742 102.138889,17.8788085 102.138889,16.2901495 C102.138889,14.7014904 103.273646,13.4028247 105.026214,13.4028247 C106.778782,13.4028247 107.913539,14.7014904 107.913539,16.2901495 Z M106.728349,16.2901495 C106.728349,15.2688687 106.135754,14.4114971 105.026214,14.4114971 C103.916674,14.4114971 103.324079,15.2688687 103.324079,16.2901495 C103.324079,17.3114303 103.916674,18.1688018 105.026214,18.1688018 C106.135754,18.1688018 106.728349,17.3114303 106.728349,16.2901495 Z M109.178582,14.0458534 C109.178582,13.7306432 109.392925,13.4532583 109.771177,13.4532583 C110.124212,13.4532583 110.363772,13.7180348 110.363772,14.0458534 L110.363772,16.5675344 C110.363772,17.4501227 110.842892,18.1057598 111.788522,18.1057598 C112.734152,18.1057598 113.276314,17.4122975 113.276314,16.554926 L113.276314,14.0458534 C113.276314,13.7180348 113.528482,13.4532583 113.868909,13.4532583 C114.221944,13.4532583 114.461504,13.7180348 114.461504,14.0458534 L114.461504,18.5218372 C114.461504,18.9000893 114.209336,19.1270406 113.868909,19.1270406 C113.54109,19.1270406 113.276314,18.9379145 113.276314,18.5218372 L113.276314,18.1183682 C112.923278,18.7992221 112.292858,19.1774742 111.460703,19.1774742 C110.010737,19.1774742 109.178582,18.1057598 109.178582,16.617968 L109.178582,14.0458534 Z M121.425546,18.5344456 C121.425546,18.8496557 121.211203,19.1270406 120.832951,19.1270406 C120.479916,19.1270406 120.240356,18.8622641 120.240356,18.5344456 L120.240356,16.0127646 C120.240356,15.1301762 119.761237,14.4745391 118.815606,14.4745391 C117.869976,14.4745391 117.327815,15.1680014 117.327815,16.025373 L117.327815,18.5344456 C117.327815,18.8622641 117.075646,19.1270406 116.73522,19.1270406 C116.382184,19.1270406 116.142624,18.8622641 116.142624,18.5344456 L116.142624,14.0584618 C116.142624,13.6802096 116.394793,13.4532583 116.73522,13.4532583 C117.063038,13.4532583 117.327815,13.6423844 117.327815,14.0584618 L117.327815,14.4619307 C117.68085,13.7810769 118.31127,13.4028247 119.143425,13.4028247 C120.593391,13.4028247 121.425546,14.4745391 121.425546,15.9623309 L121.425546,18.5344456 Z M124.859235,18.5344456 C124.859235,18.8622641 124.619675,19.1270406 124.26664,19.1270406 C123.913605,19.1270406 123.674045,18.8622641 123.674045,18.5344456 L123.674045,14.5375812 L122.715806,14.5375812 C122.438421,14.5375812 122.224078,14.3232383 122.224078,14.0458534 C122.224078,13.7684685 122.438421,13.5541256 122.715806,13.5541256 L123.674045,13.5541256 L123.674045,11.9024245 C123.674045,11.574606 123.913605,11.3098295 124.26664,11.3098295 C124.619675,11.3098295 124.859235,11.574606 124.859235,11.9024245 L124.859235,13.5541256 L125.943558,13.5541256 C126.220943,13.5541256 126.435286,13.7684685 126.435286,14.0458534 C126.435286,14.3232383 126.220943,14.5375812 125.943558,14.5375812 L124.859235,14.5375812 L124.859235,18.5344456 Z M132.470509,18.5344456 C132.470509,18.8622641 132.230949,19.1270406 131.877914,19.1270406 C131.524879,19.1270406 131.285319,18.8622641 131.285319,18.5344456 L131.285319,14.5375812 L130.32708,14.5375812 C130.049695,14.5375812 129.835352,14.3232383 129.835352,14.0458534 C129.835352,13.7684685 130.049695,13.5541256 130.32708,13.5541256 L131.285319,13.5541256 L131.285319,11.9024245 C131.285319,11.574606 131.524879,11.3098295 131.877914,11.3098295 C132.230949,11.3098295 132.470509,11.574606 132.470509,11.9024245 L132.470509,13.5541256 L133.554832,13.5541256 C133.832217,13.5541256 134.04656,13.7684685 134.04656,14.0458534 C134.04656,14.3232383 133.832217,14.5375812 133.554832,14.5375812 L132.470509,14.5375812 L132.470509,18.5344456 Z M140.052363,16.2901495 C140.052363,17.8788085 138.917607,19.1774742 137.165038,19.1774742 C135.41247,19.1774742 134.277714,17.8788085 134.277714,16.2901495 C134.277714,14.7014904 135.41247,13.4028247 137.165038,13.4028247 C138.917607,13.4028247 140.052363,14.7014904 140.052363,16.2901495 Z M138.867173,16.2901495 C138.867173,15.2688687 138.274578,14.4114971 137.165038,14.4114971 C136.055499,14.4114971 135.462904,15.2688687 135.462904,16.2901495 C135.462904,17.3114303 136.055499,18.1688018 137.165038,18.1688018 C138.274578,18.1688018 138.867173,17.3114303 138.867173,16.2901495 Z M141.027413,16.2901495 C141.027413,14.5501896 142.212603,13.4028247 143.66257,13.4028247 C144.507333,13.4028247 145.200795,13.8441189 145.604264,14.4871475 L145.604264,11.1207034 C145.604264,10.7928849 145.843824,10.5281084 146.196859,10.5281084 C146.549895,10.5281084 146.789454,10.7928849 146.789454,11.1207034 L146.789454,18.5344456 C146.789454,18.8622641 146.58772,19.1270406 146.222076,19.1270406 C145.856432,19.1270406 145.642089,18.8496557 145.642089,18.5218372 L145.642089,18.0931514 C145.263837,18.7487885 144.507333,19.1774742 143.66257,19.1774742 C142.212603,19.1774742 141.027413,17.9670673 141.027413,16.2901495 Z M142.212603,16.2901495 C142.212603,17.4249059 142.880849,18.1940186 143.90213,18.1940186 C144.92341,18.1940186 145.604264,17.2988219 145.604264,16.2901495 C145.604264,15.2814771 144.92341,14.3862803 143.90213,14.3862803 C142.880849,14.3862803 142.212603,15.155393 142.212603,16.2901495 Z M153.186119,18.5344456 C153.186119,18.8622641 152.996992,19.1270406 152.606132,19.1270406 C152.253097,19.1270406 152.026145,18.8622641 152.026145,18.5344456 L152.026145,18.4209699 C151.647893,18.9000893 151.055298,19.1774742 150.24836,19.1774742 C149.025345,19.1774742 148.155365,18.484012 148.155365,17.4753395 C148.155365,16.3531915 149.075778,15.7605965 150.298794,15.7605965 C151.004864,15.7605965 151.597459,16.025373 152.000928,16.4036251 L152.000928,15.8614637 C152.000928,14.8653997 151.584851,14.4114971 150.48792,14.4114971 C149.958367,14.4114971 149.592723,14.5123644 149.239688,14.6384484 C149.126212,14.6762736 148.98752,14.7393157 148.848827,14.7393157 C148.533617,14.7393157 148.344491,14.5249728 148.344491,14.2475879 C148.344491,13.9575945 148.584051,13.8062937 148.899261,13.6802096 C149.340555,13.503692 150.021409,13.4028247 150.588787,13.4028247 C152.253097,13.4028247 153.186119,14.2475879 153.186119,15.7858133 L153.186119,18.5344456 Z M152.000928,17.4753395 C152.000928,16.9079613 151.320075,16.5801428 150.651829,16.5801428 C149.8575,16.5801428 149.340555,16.9079613 149.340555,17.4753395 C149.340555,18.0427178 149.870108,18.3705363 150.626612,18.3705363 C151.370508,18.3705363 152.000928,18.0048926 152.000928,17.4753395 Z M159.343223,13.9954198 C159.343223,14.0836786 159.318006,14.2097626 159.292789,14.2728047 C158.914537,15.3193023 158.334551,16.8449193 157.62848,18.4714035 C156.985451,19.9591953 156.405465,20.7661333 155.295925,21.3965535 C155.220275,21.4469871 155.09419,21.4848124 154.993323,21.4848124 C154.678113,21.4848124 154.46377,21.2578611 154.46377,21.005693 C154.46377,20.7661333 154.564637,20.6400492 154.766372,20.5139652 C155.485051,20.0348458 155.825478,19.6565936 156.20373,18.9379145 L154.236819,14.222371 C154.211602,14.1467206 154.186385,14.0584618 154.186385,13.9828113 C154.186385,13.629776 154.438553,13.4532583 154.715938,13.4532583 C154.980715,13.4532583 155.132016,13.5793424 155.220275,13.7810769 L156.83415,17.8031581 L158.284117,13.8819441 C158.384984,13.5919508 158.548893,13.4532583 158.838887,13.4532583 C159.078446,13.4532583 159.343223,13.6045592 159.343223,13.9954198 Z" id="Create-your-account" fill="#15B9ED"></path>
                </g>
            </g>
        </g>
    </g>
</svg>