<?xml version="1.0" encoding="UTF-8"?>
<svg width="310px" height="22px" viewBox="0 0 310 22" version="1.1" xmlns="http://www.w3.org/2000/svg" xmlns:xlink="http://www.w3.org/1999/xlink">
    <!-- Generator: Sketch 52.6 (67491) - http://www.bohemiancoding.com/sketch -->
    <title>See how much you cou Copy</title>
    <desc>Created with Sketch.</desc>
    <g id="First-test" stroke="none" stroke-width="1" fill="none" fill-rule="evenodd">
        <path d="M12.896,13.04 C12.896,15.608 10.64,17.288 6.944,17.288 C4.568,17.288 2.384,16.448 0.896,15.296 C0.68,15.104 0.56,14.912 0.56,14.696 C0.56,14.36 0.824,14.12 1.16,14.12 C1.376,14.12 1.568,14.216 1.736,14.336 C2.936,15.176 4.64,16.04 6.92,16.04 C9.8,16.04 11.456,14.864 11.456,13.088 C11.456,11.24 9.656,10.448 6.848,9.608 C2.096,8.168 0.896,6.68 0.896,4.808 C0.896,2.024 3.656,0.728 6.848,0.728 C8.744,0.728 10.496,1.232 12.008,2.264 C12.224,2.408 12.344,2.552 12.344,2.768 C12.344,3.056 12.128,3.392 11.696,3.392 C11.576,3.392 11.432,3.344 11.312,3.272 C9.824,2.36 8.264,1.976 6.824,1.976 C4.328,1.976 2.336,2.816 2.336,4.808 C2.336,6.44 3.656,7.256 6.872,8.312 C10.64,9.56 12.896,10.376 12.896,13.04 Z M20.416,6.296 C23.368,6.296 25.456,8.6 25.456,11.672 C25.456,12.008 25.168,12.272 24.856,12.272 L16.528,12.272 C16.6,14.192 18.04,16.064 20.56,16.064 C21.904,16.064 22.96,15.584 23.824,14.552 C23.944,14.408 24.112,14.24 24.376,14.24 C24.76,14.24 24.976,14.528 24.976,14.84 C24.976,15.008 24.928,15.128 24.832,15.272 C24.016,16.4 22.456,17.288 20.56,17.288 C17.128,17.288 15.064,14.696 15.064,11.792 C15.064,8.864 17.248,6.296 20.416,6.296 Z M24.136,11.072 C23.944,9.056 22.48,7.496 20.416,7.496 C18.304,7.496 16.768,9.104 16.576,11.072 L24.136,11.072 Z M32.928,6.296 C35.88,6.296 37.968,8.6 37.968,11.672 C37.968,12.008 37.68,12.272 37.368,12.272 L29.04,12.272 C29.112,14.192 30.552,16.064 33.072,16.064 C34.416,16.064 35.472,15.584 36.336,14.552 C36.456,14.408 36.624,14.24 36.888,14.24 C37.272,14.24 37.488,14.528 37.488,14.84 C37.488,15.008 37.44,15.128 37.344,15.272 C36.528,16.4 34.968,17.288 33.072,17.288 C29.64,17.288 27.576,14.696 27.576,11.792 C27.576,8.864 29.76,6.296 32.928,6.296 Z M36.648,11.072 C36.456,9.056 34.992,7.496 32.928,7.496 C30.816,7.496 29.28,9.104 29.088,11.072 L36.648,11.072 Z M57.4,11.12 L57.4,16.472 C57.4,16.88 57.088,17.192 56.68,17.192 C56.272,17.192 55.96,16.88 55.96,16.472 L55.96,11.144 C55.96,8.984 54.832,7.616 52.6,7.616 C50.56,7.616 49,9.104 49,11.456 L49,16.472 C49,16.88 48.688,17.192 48.28,17.192 C47.872,17.192 47.56,16.88 47.56,16.472 L47.56,1.544 C47.56,1.136 47.872,0.824 48.28,0.824 C48.688,0.824 49,1.136 49,1.544 L49,8.36 C49.768,7.04 51.16,6.296 52.912,6.296 C55.696,6.296 57.4,8.336 57.4,11.12 Z M70.992,11.792 C70.992,14.84 68.736,17.288 65.52,17.288 C62.304,17.288 60.048,14.84 60.048,11.792 C60.048,8.744 62.304,6.296 65.52,6.296 C68.736,6.296 70.992,8.744 70.992,11.792 Z M69.552,11.792 C69.552,9.344 67.776,7.544 65.52,7.544 C63.264,7.544 61.488,9.344 61.488,11.792 C61.488,14.24 63.264,16.04 65.52,16.04 C67.776,16.04 69.552,14.24 69.552,11.792 Z M79.928,6.848 L82.736,14.864 L85.352,6.872 C85.448,6.584 85.592,6.392 85.952,6.392 C86.336,6.392 86.624,6.632 86.624,7.016 C86.624,7.112 86.6,7.208 86.576,7.304 L83.408,16.76 C83.312,17.024 83.096,17.192 82.76,17.192 C82.424,17.192 82.208,17.024 82.112,16.736 L79.328,8.816 L76.544,16.736 C76.448,17.024 76.232,17.192 75.896,17.192 C75.56,17.192 75.344,17.024 75.248,16.76 L72.08,7.304 C72.056,7.208 72.032,7.112 72.032,7.016 C72.032,6.632 72.32,6.392 72.704,6.392 C73.064,6.392 73.208,6.584 73.304,6.872 L75.92,14.864 L78.728,6.848 C78.824,6.584 78.992,6.392 79.328,6.392 C79.664,6.392 79.832,6.584 79.928,6.848 Z M113.328,11.12 L113.328,16.472 C113.328,16.88 113.016,17.192 112.608,17.192 C112.2,17.192 111.888,16.88 111.888,16.472 L111.888,11.144 C111.888,8.984 110.808,7.616 108.576,7.616 C106.536,7.616 105.072,9.104 105.072,11.456 L105.072,16.472 C105.072,16.88 104.76,17.192 104.352,17.192 C103.944,17.192 103.632,16.88 103.632,16.472 L103.632,11.144 C103.632,8.984 102.552,7.616 100.32,7.616 C98.28,7.616 96.816,9.104 96.816,11.456 L96.816,16.472 C96.816,16.88 96.504,17.192 96.096,17.192 C95.688,17.192 95.376,16.88 95.376,16.472 L95.376,7.112 C95.376,6.704 95.688,6.392 96.096,6.392 C96.504,6.392 96.816,6.704 96.816,7.112 L96.816,8.36 C97.584,7.04 98.88,6.296 100.632,6.296 C102.552,6.296 103.968,7.328 104.616,8.72 C105.624,6.968 107.04,6.296 108.888,6.296 C111.672,6.296 113.328,8.336 113.328,11.12 Z M116.528,12.464 L116.528,7.112 C116.528,6.704 116.84,6.392 117.248,6.392 C117.656,6.392 117.968,6.704 117.968,7.112 L117.968,12.44 C117.968,14.6 119.096,15.968 121.328,15.968 C123.368,15.968 124.928,14.48 124.928,12.128 L124.928,7.112 C124.928,6.704 125.24,6.392 125.648,6.392 C126.056,6.392 126.368,6.704 126.368,7.112 L126.368,16.472 C126.368,16.88 126.056,17.192 125.648,17.192 C125.24,17.192 124.928,16.88 124.928,16.472 L124.928,15.224 C124.16,16.544 122.768,17.288 121.016,17.288 C118.232,17.288 116.528,15.248 116.528,12.464 Z M134.656,6.296 C136.624,6.296 138.16,7.232 138.88,8.312 C138.976,8.456 139.024,8.576 139.024,8.744 C139.024,9.104 138.712,9.344 138.328,9.344 C138.088,9.344 137.944,9.2 137.824,9.056 C136.96,8.024 136.072,7.544 134.656,7.544 C132.304,7.544 130.6,9.44 130.6,11.792 C130.6,14.144 132.304,16.04 134.656,16.04 C136.072,16.04 136.96,15.56 137.824,14.528 C137.944,14.384 138.088,14.24 138.328,14.24 C138.712,14.24 139.024,14.48 139.024,14.84 C139.024,15.008 138.976,15.128 138.88,15.272 C138.16,16.352 136.624,17.288 134.656,17.288 C131.512,17.288 129.16,14.936 129.16,11.792 C129.16,8.648 131.512,6.296 134.656,6.296 Z M151.416,11.12 L151.416,16.472 C151.416,16.88 151.104,17.192 150.696,17.192 C150.288,17.192 149.976,16.88 149.976,16.472 L149.976,11.144 C149.976,8.984 148.848,7.616 146.616,7.616 C144.576,7.616 143.016,9.104 143.016,11.456 L143.016,16.472 C143.016,16.88 142.704,17.192 142.296,17.192 C141.888,17.192 141.576,16.88 141.576,16.472 L141.576,1.544 C141.576,1.136 141.888,0.824 142.296,0.824 C142.704,0.824 143.016,1.136 143.016,1.544 L143.016,8.36 C143.784,7.04 145.176,6.296 146.928,6.296 C149.712,6.296 151.416,8.336 151.416,11.12 Z M169.288,7.04 C169.288,7.136 169.264,7.232 169.216,7.352 C169.216,7.352 166.864,13.112 165.688,15.896 C164.752,18.128 163.24,20.288 161.104,21.56 C160.984,21.632 160.864,21.68 160.672,21.68 C160.288,21.68 160.048,21.416 160.048,21.08 C160.048,20.816 160.192,20.648 160.48,20.48 C161.8,19.568 162.784,18.584 163.744,16.928 L159.664,7.4 C159.616,7.28 159.568,7.16 159.568,7.04 C159.568,6.68 159.832,6.392 160.24,6.392 C160.576,6.392 160.744,6.56 160.864,6.848 L164.488,15.392 L168.04,6.8 C168.136,6.56 168.304,6.392 168.64,6.392 C169.048,6.392 169.288,6.68 169.288,7.04 Z M181.08,11.792 C181.08,14.84 178.824,17.288 175.608,17.288 C172.392,17.288 170.136,14.84 170.136,11.792 C170.136,8.744 172.392,6.296 175.608,6.296 C178.824,6.296 181.08,8.744 181.08,11.792 Z M179.64,11.792 C179.64,9.344 177.864,7.544 175.608,7.544 C173.352,7.544 171.576,9.344 171.576,11.792 C171.576,14.24 173.352,16.04 175.608,16.04 C177.864,16.04 179.64,14.24 179.64,11.792 Z M183.728,12.464 L183.728,7.112 C183.728,6.704 184.04,6.392 184.448,6.392 C184.856,6.392 185.168,6.704 185.168,7.112 L185.168,12.44 C185.168,14.6 186.296,15.968 188.528,15.968 C190.568,15.968 192.128,14.48 192.128,12.128 L192.128,7.112 C192.128,6.704 192.44,6.392 192.848,6.392 C193.256,6.392 193.568,6.704 193.568,7.112 L193.568,16.472 C193.568,16.88 193.256,17.192 192.848,17.192 C192.44,17.192 192.128,16.88 192.128,16.472 L192.128,15.224 C191.36,16.544 189.968,17.288 188.216,17.288 C185.432,17.288 183.728,15.248 183.728,12.464 Z M208.656,6.296 C210.624,6.296 212.16,7.232 212.88,8.312 C212.976,8.456 213.024,8.576 213.024,8.744 C213.024,9.104 212.712,9.344 212.328,9.344 C212.088,9.344 211.944,9.2 211.824,9.056 C210.96,8.024 210.072,7.544 208.656,7.544 C206.304,7.544 204.6,9.44 204.6,11.792 C204.6,14.144 206.304,16.04 208.656,16.04 C210.072,16.04 210.96,15.56 211.824,14.528 C211.944,14.384 212.088,14.24 212.328,14.24 C212.712,14.24 213.024,14.48 213.024,14.84 C213.024,15.008 212.976,15.128 212.88,15.272 C212.16,16.352 210.624,17.288 208.656,17.288 C205.512,17.288 203.16,14.936 203.16,11.792 C203.16,8.648 205.512,6.296 208.656,6.296 Z M225.728,11.792 C225.728,14.84 223.472,17.288 220.256,17.288 C217.04,17.288 214.784,14.84 214.784,11.792 C214.784,8.744 217.04,6.296 220.256,6.296 C223.472,6.296 225.728,8.744 225.728,11.792 Z M224.288,11.792 C224.288,9.344 222.512,7.544 220.256,7.544 C218,7.544 216.224,9.344 216.224,11.792 C216.224,14.24 218,16.04 220.256,16.04 C222.512,16.04 224.288,14.24 224.288,11.792 Z M228.376,12.464 L228.376,7.112 C228.376,6.704 228.688,6.392 229.096,6.392 C229.504,6.392 229.816,6.704 229.816,7.112 L229.816,12.44 C229.816,14.6 230.944,15.968 233.176,15.968 C235.216,15.968 236.776,14.48 236.776,12.128 L236.776,7.112 C236.776,6.704 237.088,6.392 237.496,6.392 C237.904,6.392 238.216,6.704 238.216,7.112 L238.216,16.472 C238.216,16.88 237.904,17.192 237.496,17.192 C237.088,17.192 236.776,16.88 236.776,16.472 L236.776,15.224 C236.008,16.544 234.616,17.288 232.864,17.288 C230.08,17.288 228.376,15.248 228.376,12.464 Z M243.096,16.472 C243.096,16.88 242.784,17.192 242.376,17.192 C241.968,17.192 241.656,16.88 241.656,16.472 L241.656,1.544 C241.656,1.136 241.968,0.824 242.376,0.824 C242.784,0.824 243.096,1.136 243.096,1.544 L243.096,16.472 Z M255.416,16.472 L255.416,15.08 C254.504,16.448 253.04,17.288 251.12,17.288 C248.192,17.288 245.864,14.984 245.864,11.792 C245.864,8.6 248.192,6.296 251.12,6.296 C253.04,6.296 254.504,7.136 255.416,8.504 L255.416,1.544 C255.416,1.136 255.728,0.824 256.136,0.824 C256.544,0.824 256.856,1.136 256.856,1.544 L256.856,16.472 C256.856,16.88 256.544,17.192 256.136,17.192 C255.728,17.192 255.416,16.88 255.416,16.472 Z M247.304,11.792 C247.304,14.288 248.936,16.064 251.336,16.064 C253.808,16.064 255.416,14.12 255.416,11.792 C255.416,9.464 253.808,7.52 251.336,7.52 C248.936,7.52 247.304,9.296 247.304,11.792 Z M275.208,14.384 C275.208,16.064 273.72,17.288 271.056,17.288 C269.472,17.288 268.056,16.784 267.024,15.92 C266.832,15.776 266.736,15.56 266.736,15.368 C266.736,15.056 266.976,14.84 267.288,14.84 C267.528,14.84 267.696,14.936 267.84,15.056 C268.752,15.776 269.952,16.184 271.128,16.184 C272.808,16.184 273.816,15.512 273.816,14.456 C273.816,13.256 272.592,12.896 271.056,12.464 C267.864,11.576 266.856,10.592 266.856,9.08 C266.856,7.208 268.512,6.296 270.984,6.296 C272.064,6.296 273.216,6.584 274.224,7.136 C274.608,7.328 274.872,7.544 274.872,7.856 C274.872,8.168 274.656,8.408 274.272,8.408 C274.08,8.408 273.912,8.312 273.696,8.192 C272.928,7.784 271.92,7.472 270.96,7.472 C269.4,7.472 268.248,7.928 268.248,9.032 C268.248,10.016 268.92,10.52 271.176,11.168 C273.552,11.864 275.208,12.488 275.208,14.384 Z M286.544,16.472 C286.544,16.856 286.28,17.192 285.824,17.192 C285.368,17.192 285.104,16.856 285.104,16.472 L285.104,15.944 C284.288,16.856 282.992,17.288 281.528,17.288 C278.96,17.288 277.328,15.944 277.328,14.144 C277.328,12.224 279.08,10.952 281.744,10.952 C283.304,10.952 284.552,11.6 285.104,12.248 L285.104,10.832 C285.104,8.552 283.976,7.52 281.624,7.52 C280.472,7.52 279.608,7.76 278.672,8.144 C278.6,8.168 278.48,8.216 278.336,8.216 C277.952,8.216 277.712,8 277.712,7.616 C277.712,7.376 277.88,7.184 278.072,7.088 C279.008,6.608 280.136,6.296 281.744,6.296 C284.768,6.296 286.544,7.904 286.544,10.808 L286.544,16.472 Z M285.104,14.144 C285.104,12.824 283.472,12.032 281.84,12.032 C279.968,12.032 278.768,12.872 278.768,14.144 C278.768,15.44 279.968,16.232 281.744,16.232 C283.496,16.232 285.104,15.416 285.104,14.144 Z M289.552,6.824 L293.152,14.96 L296.752,6.824 C296.872,6.536 297.04,6.392 297.376,6.392 C297.784,6.392 298.048,6.68 298.048,7.04 C298.048,7.16 298,7.304 297.952,7.4 L293.752,16.784 C293.632,17.024 293.488,17.192 293.152,17.192 C292.816,17.192 292.672,17.024 292.552,16.784 L288.352,7.4 C288.304,7.304 288.256,7.16 288.256,7.04 C288.256,6.68 288.52,6.392 288.928,6.392 C289.264,6.392 289.432,6.536 289.552,6.824 Z M304.416,6.296 C307.368,6.296 309.456,8.6 309.456,11.672 C309.456,12.008 309.168,12.272 308.856,12.272 L300.528,12.272 C300.6,14.192 302.04,16.064 304.56,16.064 C305.904,16.064 306.96,15.584 307.824,14.552 C307.944,14.408 308.112,14.24 308.376,14.24 C308.76,14.24 308.976,14.528 308.976,14.84 C308.976,15.008 308.928,15.128 308.832,15.272 C308.016,16.4 306.456,17.288 304.56,17.288 C301.128,17.288 299.064,14.696 299.064,11.792 C299.064,8.864 301.248,6.296 304.416,6.296 Z M308.136,11.072 C307.944,9.056 306.48,7.496 304.416,7.496 C302.304,7.496 300.768,9.104 300.576,11.072 L308.136,11.072 Z" id="See-how-much-you-cou-Copy" fill="#FFFFFF"></path>
    </g>
</svg>