<?xml version="1.0" encoding="UTF-8"?>
<svg width="73px" height="23px" viewBox="0 0 73 23" version="1.1" xmlns="http://www.w3.org/2000/svg" xmlns:xlink="http://www.w3.org/1999/xlink">
    <!-- Generator: Sketch 52.6 (67491) - http://www.bohemiancoding.com/sketch -->
    <title>atom/logo/mobile/grey</title>
    <desc>Created with Sketch.</desc>
    <g id="First-test" stroke="none" stroke-width="1" fill="none" fill-rule="evenodd">
        <g id="Retargeting---B2C---Acc---728-x-90---OPT2---2" transform="translate(-15.000000, -34.000000)" fill="#FFFFFF">
            <g id="atom/logo/mobile/white" transform="translate(15.000000, 34.000000)">
                <g id="Group">
                    <path d="M5.93547929,5.59417078 C4.76330191,5.59407589 3.6176333,5.93944549 2.64445646,6.586272 C2.46993929,5.9357525 1.83242189,5.51650097 1.15902422,5.60940495 C0.485626541,5.70230894 -0.0118031545,6.27814121 2.00995362e-14,6.95110922 L2.00995362e-14,16.0208346 C2.02430846e-14,16.7578786 0.603560848,17.3553708 1.34809088,17.3553708 C2.09262092,17.3553708 2.69618177,16.7578786 2.69618177,16.0208346 L2.69618177,11.4955729 C2.69618175,10.3522063 3.31235602,9.29569207 4.31259769,8.72400878 C5.31283935,8.1523255 6.54518791,8.1523255 7.54542957,8.72400878 C8.54567124,9.29569207 9.1618455,10.3522063 9.16184549,11.4955729 L9.16184549,16.0080333 C9.16184547,16.4848172 9.41879014,16.9253836 9.83589092,17.1637756 C10.2529917,17.4021675 10.766881,17.4021675 11.1839818,17.1637756 C11.6010826,16.9253836 11.8580273,16.4848172 11.8580273,16.0080333 L11.8580273,11.4955729 C11.8631801,9.9355139 11.2420919,8.43732539 10.1313969,7.330596 C9.02070191,6.22386661 7.51138368,5.59925515 5.93547929,5.59417078 Z" id="Shape" fill-rule="nonzero"></path>
                    <path d="M45.356631,5.645376 C44.2081987,5.64484616 43.0846038,5.9763108 42.1237991,6.59907331 L42.1237991,1.97140114 C42.1237991,1.23435717 41.5202383,0.63686498 40.7757082,0.63686498 C40.0311782,0.63686498 39.4276173,1.23435717 39.4276173,1.97140114 L39.4276173,16.014434 C39.4180804,16.6819813 39.9094533,17.2532965 40.5766722,17.3504303 C41.243891,17.4475642 41.8806081,17.0404765 42.0656081,16.3984731 C44.1781928,17.7926428 46.9530182,17.7004532 48.9664257,16.1692034 C50.9798331,14.6379537 51.7848744,12.0075596 50.968513,9.62757766 C50.1521517,7.24759578 47.8956084,5.64634861 45.356631,5.645376 Z M45.356631,14.721502 C43.5711872,14.721502 42.1237991,13.288667 42.1237991,11.5211755 C42.1237991,9.75368397 43.5711872,8.32084898 45.356631,8.32084898 C47.1420747,8.32084898 48.5894628,9.75368397 48.5894628,11.5211755 C48.585897,13.2861669 47.1395528,14.7151049 45.356631,14.7151014 L45.356631,14.721502 Z" id="Shape" fill-rule="nonzero"></path>
                    <path d="M64.255766,11.5467781 C64.255766,8.30873363 61.604151,5.68377992 58.3332181,5.68377992 C55.0622851,5.68377992 52.4106701,8.30873363 52.4106701,11.5467781 C52.4106701,14.7848226 55.0622851,17.4097763 58.3332181,17.4097763 C59.0777481,17.4097763 59.6813089,16.8122841 59.6813089,16.0752402 C59.6813089,15.3381962 59.0777481,14.740704 58.3332181,14.740704 C57.0752456,14.7388053 55.93262,14.014678 55.4042724,12.8845146 L62.9044423,12.8845146 C63.2633631,12.886227 63.6080835,12.7458372 63.8618818,12.4945908 C64.1156801,12.2433444 64.2574958,11.9020901 64.255766,11.5467781 Z M58.3332181,8.34645159 C59.5911905,8.34835027 60.7338162,9.07247762 61.2621637,10.202641 L55.4107381,10.202641 C55.9428543,9.07747089 57.0846924,8.35883324 58.3396837,8.3592529 L58.3332181,8.34645159 Z" id="Shape" fill-rule="nonzero"></path>
                    <path d="M71.4261871,5.67097861 C70.2568248,5.66987406 69.113534,6.01297738 68.1416299,6.65667918 C67.9672744,6.00753111 67.3317486,5.58863401 66.6594954,5.67975298 C65.9872421,5.77087195 65.488849,6.34346339 65.4971735,7.01511576 L65.4971735,16.0592385 C65.4971735,16.7962825 66.1007343,17.3937747 66.8452643,17.3937747 C67.5897944,17.3937747 68.1933552,16.7962825 68.1933552,16.0592385 L68.1933552,11.5403775 C68.1933552,9.77288593 69.6407433,8.34005094 71.4261871,8.34005094 C72.1707171,8.34005094 72.774278,7.74255875 72.774278,7.00551478 C72.774278,6.2684708 72.1707171,5.67097861 71.4261871,5.67097861 Z" id="Shape" fill-rule="nonzero"></path>
                    <path d="M24.9445306,11.5467781 C24.9445306,8.30873363 22.2929156,5.68377992 19.0219827,5.68377992 C15.7510497,5.68377992 13.0994347,8.30873363 13.0994347,11.5467781 C13.0994347,14.7848226 15.7510497,17.4097763 19.0219827,17.4097763 C19.7665127,17.4097763 20.3700735,16.8122841 20.3700735,16.0752402 C20.3700735,15.3381962 19.7665127,14.740704 19.0219827,14.740704 C17.7733824,14.7289052 16.6432788,14.0063332 16.1188996,12.8845146 L23.6190696,12.8845146 C24.3567531,12.8739896 24.9481542,12.2771114 24.9445306,11.5467781 Z M19.0219827,8.34645159 C20.2782611,8.3556263 21.4154051,9.08446754 21.937997,10.2154423 L16.1188996,10.2154423 C16.6432788,9.09362368 17.7733824,8.37105172 19.0219827,8.3592529 L19.0219827,8.34645159 Z" id="Shape" fill-rule="nonzero"></path>
                    <path d="M37.7918044,6.97031118 C37.7427179,6.26907146 37.1537744,5.7250525 36.4437135,5.7250525 C35.7336527,5.7250525 35.1447092,6.26907146 35.0956227,6.97031118 L35.0956227,11.7387977 C34.9876157,13.4238697 33.5514255,14.7218683 31.8464636,14.6753197 C30.1415017,14.6287711 28.7797622,13.2543837 28.7657379,11.5659801 L28.7657379,6.98311249 C28.7657379,6.24606852 28.162177,5.64857633 27.417647,5.64857633 C26.673117,5.64857633 26.0695561,6.24606852 26.0695561,6.98311249 L26.0695561,11.5723807 C26.0651737,13.7018495 27.2375746,15.6631733 29.125244,16.6842786 C31.0129135,17.7053839 33.3135406,17.6227403 35.1214853,16.4688803 L35.1214853,16.603294 C35.082685,18.3189065 33.6608843,19.6865224 31.9274474,19.6756075 C31.1829174,19.6756075 30.5793565,20.2730997 30.5793565,21.0101437 C30.5793565,21.7471876 31.1829174,22.3446798 31.9274474,22.3446798 C35.1647652,22.3411523 37.7882411,19.7440549 37.7918044,16.5392875 L37.7918044,6.93830792 L37.7918044,6.97031118 Z" id="Shape" fill-rule="nonzero"></path>
                </g>
            </g>
        </g>
    </g>
</svg>