<?xml version="1.0" encoding="UTF-8"?>
<svg width="70px" height="21px" viewBox="0 0 70 21" version="1.1" xmlns="http://www.w3.org/2000/svg" xmlns:xlink="http://www.w3.org/1999/xlink">
    <!-- Generator: Sketch 52.6 (67491) - http://www.bohemiancoding.com/sketch -->
    <title>atom/logo/mobile/grey</title>
    <desc>Created with Sketch.</desc>
    <g id="First-test" stroke="none" stroke-width="1" fill="none" fill-rule="evenodd">
        <g id="Retargeting---B2C---Acc---300-x-250---OPT2---1" transform="translate(-10.000000, -207.000000)" fill="#FFFFFF">
            <g id="atom/logo/mobile/white" transform="translate(10.000000, 207.000000)">
                <g id="Group">
                    <path d="M5.69566195,5.12413714 C4.57084527,5.12405023 3.4714663,5.44040117 2.53760973,6.03288 C2.37014377,5.43701848 1.75838464,5.05299331 1.11219495,5.13809132 C0.466005267,5.22318932 -0.0113262594,5.75063899 1.92874417e-14,6.36706286 L1.92874417e-14,14.6747314 C1.94252166e-14,15.3498475 0.579174551,15.8971371 1.29362257,15.8971371 C2.00807058,15.8971371 2.58724513,15.3498475 2.58724513,14.6747314 L2.58724513,10.5296914 C2.58724512,9.48239286 3.17852345,8.51464907 4.13835131,7.99099978 C5.09817917,7.46735049 6.28073587,7.46735049 7.24056373,7.99099978 C8.20039159,8.51464907 8.79166993,9.48239286 8.79166991,10.5296914 L8.79166991,14.6630057 C8.7916699,15.0997292 9.03823296,15.5032784 9.43848118,15.7216401 C9.8387294,15.9400019 10.3318556,15.9400019 10.7321038,15.7216401 C11.132352,15.5032784 11.3789151,15.0997292 11.378915,14.6630057 L11.378915,10.5296914 C11.3838597,9.10071177 10.787866,7.72840411 9.72204755,6.71466438 C8.6562291,5.70092465 7.20789343,5.12879432 5.69566195,5.12413714 Z" id="Shape" fill-rule="nonzero"></path>
                    <path d="M43.5240398,5.17104 C42.4220088,5.17055468 41.3438117,5.47416898 40.4218274,6.04460571 L40.4218274,1.80576 C40.4218274,1.13064397 39.8426529,0.583354286 39.1282049,0.583354286 C38.4137569,0.583354286 37.8345823,1.13064397 37.8345823,1.80576 L37.8345823,14.6688686 C37.8254307,15.2803272 38.2969502,15.8036394 38.9372107,15.8926118 C39.5774711,15.9815843 40.1884623,15.6087009 40.3659876,15.02064 C42.3932153,16.2976687 45.0559266,16.2132251 46.9879842,14.810634 C48.9200418,13.4080429 49.6925562,10.9986599 48.9091792,8.81864896 C48.1258021,6.638638 45.9604323,5.17193089 43.5240398,5.17104 Z M43.5240398,13.4845714 C41.8107352,13.4845714 40.4218274,12.1721262 40.4218274,10.5531429 C40.4218274,8.93415956 41.8107352,7.62171429 43.5240398,7.62171429 C45.2373444,7.62171429 46.6262522,8.93415956 46.6262522,10.5531429 C46.6228304,12.1698361 45.2349244,13.4787118 43.5240398,13.4787086 L43.5240398,13.4845714 Z" id="Shape" fill-rule="nonzero"></path>
                    <path d="M61.6595735,10.5765943 C61.6595735,7.61061689 59.1150944,5.20621714 55.9763204,5.20621714 C52.8375463,5.20621714 50.2930673,7.61061689 50.2930673,10.5765943 C50.2930673,13.5425717 52.8375463,15.9469714 55.9763204,15.9469714 C56.6907684,15.9469714 57.2699429,15.3996817 57.2699429,14.7245657 C57.2699429,14.0494497 56.6907684,13.50216 55.9763204,13.50216 C54.7691751,13.5004209 53.6727161,12.8371362 53.1657159,11.8019314 L60.3628487,11.8019314 C60.7072676,11.8034999 61.03806,11.674906 61.2816038,11.4447698 C61.5251476,11.2146337 61.6612333,10.9020522 61.6595735,10.5765943 Z M55.9763204,7.64516571 C57.1834656,7.64690486 58.2799246,8.31018956 58.7869248,9.34539429 L53.1719204,9.34539429 C53.682537,8.31476328 54.7782402,7.65650703 55.9825248,7.65689143 L55.9763204,7.64516571 Z" id="Shape" fill-rule="nonzero"></path>
                    <path d="M68.5402805,5.19449143 C67.4181653,5.19347968 66.3210679,5.50775477 65.3884327,6.09737143 C65.2211219,5.5027661 64.6112739,5.11906559 63.9661824,5.20252856 C63.3210909,5.28599153 62.8428349,5.81047267 62.850823,6.42569143 L62.850823,14.7099086 C62.850823,15.3850246 63.4299976,15.9323143 64.1444456,15.9323143 C64.8588936,15.9323143 65.4380681,15.3850246 65.4380681,14.7099086 L65.4380681,10.5707314 C65.4380681,8.95174813 66.8269759,7.63930286 68.5402805,7.63930286 C69.2547285,7.63930286 69.8339031,7.09201318 69.8339031,6.41689714 C69.8339031,5.74178111 69.2547285,5.19449143 68.5402805,5.19449143 Z" id="Shape" fill-rule="nonzero"></path>
                    <path d="M23.9366708,10.5765943 C23.9366708,7.61061689 21.3921917,5.20621714 18.2534177,5.20621714 C15.1146437,5.20621714 12.5701646,7.61061689 12.5701646,10.5765943 C12.5701646,13.5425717 15.1146437,15.9469714 18.2534177,15.9469714 C18.9678657,15.9469714 19.5470403,15.3996817 19.5470403,14.7245657 C19.5470403,14.0494497 18.9678657,13.50216 18.2534177,13.50216 C17.0552659,13.4913525 15.9708231,12.8294925 15.467631,11.8019314 L22.6647637,11.8019314 C23.3726418,11.7922908 23.9401479,11.2455635 23.9366708,10.5765943 Z M18.2534177,7.64516571 C19.4589375,7.65356955 20.5501362,8.32117206 21.0516133,9.35712 L15.467631,9.35712 C15.9708231,8.32955888 17.0552659,7.66769889 18.2534177,7.65689143 L18.2534177,7.64516571 Z" id="Shape" fill-rule="nonzero"></path>
                    <path d="M36.2648628,6.38465143 C36.2177596,5.74233129 35.6526118,5.24402192 34.9712403,5.24402192 C34.2898688,5.24402192 33.724721,5.74233129 33.6776177,6.38465143 L33.6776177,10.75248 C33.5739747,12.2959688 32.1958124,13.4849069 30.5597378,13.4422694 C28.9236632,13.3996319 27.6169435,12.1407234 27.6034858,10.5941829 L27.6034858,6.39637714 C27.6034858,5.72126111 27.0243113,5.17397143 26.3098633,5.17397143 C25.5954153,5.17397143 25.0162407,5.72126111 25.0162407,6.39637714 L25.0162407,10.6000457 C25.0120354,12.5505922 26.1370665,14.3471216 27.9484665,15.2824315 C29.7598664,16.2177414 31.967539,16.1420417 33.7024354,15.0851314 L33.7024354,15.2082514 C33.6652027,16.7797146 32.3008486,18.0324207 30.6374496,18.0224229 C29.9230015,18.0224229 29.343827,18.5697125 29.343827,19.2448286 C29.343827,19.9199446 29.9230015,20.4672343 30.6374496,20.4672343 C33.7439666,20.4640031 36.2614434,18.0851191 36.2648628,15.1496229 L36.2648628,6.35533714 L36.2648628,6.38465143 Z" id="Shape" fill-rule="nonzero"></path>
                </g>
            </g>
        </g>
    </g>
</svg>