<?xml version="1.0" encoding="UTF-8"?>
<svg width="136px" height="180px" viewBox="0 0 136 180" version="1.1" xmlns="http://www.w3.org/2000/svg" xmlns:xlink="http://www.w3.org/1999/xlink">
    <!-- Generator: Sketch 52.6 (67491) - http://www.bohemiancoding.com/sketch -->
    <title>Illustration stage 1 Copy</title>
    <desc>Created with Sketch.</desc>
    <defs>
        <linearGradient x1="50%" y1="32.3324901%" x2="50%" y2="100%" id="linearGradient-1">
            <stop stop-color="#FFFFFF" stop-opacity="0" offset="0%"></stop>
            <stop stop-color="#000000" stop-opacity="0.5" offset="100%"></stop>
        </linearGradient>
        <path d="M53.0838012,65.7366765 C59.3899591,55.8187154 62.5265519,44.7320013 62.4935794,32.4765345 C62.4441208,14.0933342 61.5404511,-0.811520118 52.9046957,-0.834780581 C44.2689402,-0.858041044 43.4454588,14.0421612 43.4949174,32.4253615 C43.5278899,44.6808283 46.7241845,55.7846 53.0838012,65.7366765 Z" id="path-2"></path>
        <path d="M47.5711955,95.3287398 C52.4471364,87.7347442 54.8722003,79.2456059 54.846387,69.8613249 C54.8076671,55.7849035 54.1085238,44.3718729 47.4309783,44.3535085 C40.7534327,44.3351442 40.1170669,55.744502 40.1557868,69.8209234 C40.1816001,79.2052043 42.653403,87.7078098 47.5711955,95.3287398 Z" id="path-3"></path>
        <path d="M18.2338523,76.8746554 C23.1384522,69.2429521 25.600929,60.7265582 25.6212825,51.325474 C25.6518128,37.2238475 25.0100034,25.7936686 18.3444123,25.8081487 C11.6788212,25.8226289 10.9875123,37.2557038 10.956982,51.3573302 C10.9366285,60.7584145 13.3622519,69.2641896 18.2338523,76.8746554 Z" id="path-4"></path>
        <path d="M46.8651709,118.221735 C50.5915224,112.168853 52.4445104,105.402815 52.424135,97.9236198 C52.3935719,86.7048268 51.8584044,77.6088067 46.7544921,77.5948916 C41.6505797,77.5809764 41.1649648,86.6742135 41.1955279,97.8930065 C41.2159033,105.372202 43.1057843,112.148444 46.8651709,118.221735 Z" id="path-5"></path>
        <path d="M22.8651613,114.703457 C26.6193542,108.625764 28.5055342,101.843921 28.5237014,94.3579299 C28.5509522,83.1289429 28.0631163,74.0272909 22.9638453,74.039698 C17.8645743,74.0521051 17.3325561,83.1562384 17.3053052,94.3852255 C17.287138,101.871217 19.1404234,108.643961 22.8651613,114.703457 Z" id="path-6"></path>
        <path d="M48.5961957,140.479509 C52.3216248,134.424053 54.17445,127.655323 54.1546714,120.17332 C54.1250036,108.950315 53.5907535,99.8509216 48.4887588,99.837414 C43.3867641,99.8239065 42.9006152,108.920599 42.930283,120.143603 C42.9500616,127.625606 44.8386992,134.404242 48.5961957,140.479509 Z" id="path-7"></path>
        <path d="M45.2257152,169.332502 C48.9537083,163.282618 50.8074233,156.519869 50.7868602,149.044255 C50.7560155,137.830835 50.2203751,128.739157 45.1140167,128.725114 C40.0076584,128.711071 39.5220271,137.79994 39.5528718,149.01336 C39.5734349,156.488974 41.4643827,163.262021 45.2257152,169.332502 Z" id="path-8"></path>
        <path d="M20.9143981,162.140709 C24.6718946,156.065441 26.5605321,149.286806 26.5803107,141.804803 C26.6099786,130.581798 26.1238297,121.485106 21.021835,121.498613 C15.9198402,121.512121 15.3855902,130.611515 15.3559223,141.834519 C15.3361437,149.316522 17.188969,156.085252 20.9143981,162.140709 Z" id="path-9"></path>
        <path d="M24.3611659,140.479509 C28.1186624,134.404242 30.0072999,127.625606 30.0270785,120.143603 C30.0567464,108.920599 29.5705975,99.8239065 24.4686028,99.837414 C19.366608,99.8509216 18.832358,108.950315 18.8026901,120.17332 C18.7829115,127.655323 20.6357368,134.424053 24.3611659,140.479509 Z" id="path-10"></path>
        <linearGradient x1="50%" y1="0%" x2="50%" y2="100%" id="linearGradient-11">
            <stop stop-color="#2FDDF7" stop-opacity="0" offset="0%"></stop>
            <stop stop-color="#15B9ED" offset="100%"></stop>
        </linearGradient>
        <radialGradient cx="64.1111086%" cy="59.3221277%" fx="64.1111086%" fy="59.3221277%" r="77.7664049%" gradientTransform="translate(0.641111,0.593221),scale(0.891728,1.000000),rotate(90.000000),scale(1.000000,1.137033),translate(-0.641111,-0.593221)" id="radialGradient-12">
            <stop stop-color="#FFFFFF" stop-opacity="0" offset="0%"></stop>
            <stop stop-color="#62BBD7" stop-opacity="0.176715353" offset="63.4112322%"></stop>
            <stop stop-color="#15B9ED" offset="100%"></stop>
        </radialGradient>
        <path d="M38.3184785,38.7483763 C53.2047918,31.6688424 71.7600203,26.1681169 90.9713929,60.5227214 C110.182766,94.8773259 121.981242,82.5173146 142.535582,88.7578603 C163.089921,94.998406 167.875745,120.410413 156.977933,141.76952 C146.080121,163.128626 85.5066964,160.596042 70.9533851,156.326563 C56.4000737,152.057084 25.9855098,124.533634 22.6838057,91.0646702 C19.3821016,57.5957068 23.4321651,45.8279102 38.3184785,38.7483763 Z" id="path-13"></path>
        <radialGradient cx="64.1111086%" cy="59.3221277%" fx="64.1111086%" fy="59.3221277%" r="77.7664049%" gradientTransform="translate(0.641111,0.593221),scale(0.782024,1.000000),rotate(90.000000),scale(1.000000,1.137033),translate(-0.641111,-0.593221)" id="radialGradient-14">
            <stop stop-color="#FFFFFF" stop-opacity="0" offset="0%"></stop>
            <stop stop-color="#62BBD7" stop-opacity="0.176715353" offset="63.4112322%"></stop>
            <stop stop-color="#15B9ED" offset="100%"></stop>
        </radialGradient>
        <path d="M162.693875,42.4601876 C141.149299,34.8090557 127.100365,37.2206427 120.547075,49.6949484 C110.717139,68.4064071 116.100983,90.5236129 91.8879695,92.0627018 C67.6749563,93.6017907 44.6473338,122.888409 55.8995178,131.428014 C67.1517018,139.96762 117.667595,155.140513 145.788574,155.157816 C173.909552,155.175118 193.981722,139.355327 200.734491,118.521335 C207.48726,97.687344 194.68751,81.0678869 188.838183,65.9000278 C184.938632,55.7881218 176.223862,47.9748417 162.693875,42.4601876 Z" id="path-15"></path>
        <linearGradient x1="23.6956991%" y1="41.0444507%" x2="67.5671381%" y2="19.4066144%" id="linearGradient-16">
            <stop stop-color="#FFFFFF" stop-opacity="0" offset="0%"></stop>
            <stop stop-color="#000000" stop-opacity="0.194774683" offset="100%"></stop>
        </linearGradient>
        <path d="M13.5356757,1.2537533 C13.3059893,1.18308819 13.1166809,1.18636661 12.9677503,1.26358856 C11.0767309,2.24410054 9.3484596,5.04560786 8.01062134,9.12241849 C6.51473736,13.6808438 4.65488152,26.3400506 2.43105382,47.1000389 L17.9423537,48.0935262 C19.1930776,37.0934539 20.3489815,28.662489 21.4100653,22.8006316 C22.4711491,16.9387741 19.8463526,9.75648135 13.5356757,1.2537533 Z" id="path-17"></path>
        <path d="M21.9647417,0 C10.7772656,5.74924097 3.48927698,9.02925888 0.100775947,9.84005374 C1.75461089,14.9763845 3.21105024,30.7119671 4.91737615,46.5464237 C6.05492675,57.1027282 4.44939335,72.2698174 0.100775947,92.0476915 C16.2153233,92.9559386 26.5653012,93.4100622 31.1507097,93.4100622 C35.7361183,93.4100622 43.2562323,92.9559386 53.7110517,92.0476915 C53.7110517,78.5409314 53.7110517,67.164874 53.7110517,57.9195194 C53.7110517,53.9211698 53.785351,48.5506695 53.9386625,42.8737232 C54.3171028,28.8605269 55.1761378,13.1102205 56.5883404,11.391471 C53.6582112,9.7814447 48.3092673,6.82072071 40.5415089,2.50929901 L32.3015093,15.5292199 L21.9647417,0 Z" id="path-18"></path>
        <linearGradient x1="61.6651348%" y1="64.3569263%" x2="100%" y2="9.2525653%" id="linearGradient-20">
            <stop stop-color="#FFFFFF" stop-opacity="0" offset="0%"></stop>
            <stop stop-color="#000000" stop-opacity="0.194774683" offset="100%"></stop>
        </linearGradient>
        <path d="M16.6057816,15.4417718 C11.8494632,18.8241918 8.72300127,22.7947766 7.22639568,27.3535262 C5.7297901,31.9122758 3.86789077,44.5720065 1.64069767,65.3327184 L17.1515674,66.3236756 C18.4040733,55.3232081 19.5613395,46.8919079 20.6233661,41.029775 C21.6853928,35.1676421 20.3461979,26.6383077 16.6057816,15.4417718 Z" id="path-21"></path>
        <filter x="-75.0%" y="-74.3%" width="250.1%" height="248.7%" filterUnits="objectBoundingBox" id="filter-22">
            <feGaussianBlur stdDeviation="1.2474" in="SourceGraphic"></feGaussianBlur>
        </filter>
        <filter x="-75.0%" y="-74.3%" width="250.1%" height="248.7%" filterUnits="objectBoundingBox" id="filter-23">
            <feGaussianBlur stdDeviation="1.2474" in="SourceGraphic"></feGaussianBlur>
        </filter>
        <path d="M12.4830105,37.4908781 C15.4267033,37.4908781 19.5926283,36.6678935 21.7269085,34.0859156 C24.5911472,30.6208592 23.9075213,26.5841712 23.9075213,20.3927419 C23.9075213,15.4427435 23.6609848,9.44014019 21.7269085,5.99435936 C19.4392436,1.91861967 16.2188067,0.00525539436 12.4830105,0.00525539436 C9.40756371,0.00525539436 5.69350765,0.736435255 3.5178408,3.62660631 C0.816352584,7.21528214 0,12.3690179 0,18.3539545 C0,23.4716538 1.46541013,29.691884 3.5178408,33.0774565 C5.7986904,36.8398158 8.85421699,37.4908781 12.4830105,37.4908781 Z" id="path-24"></path>
    </defs>
    <g id="First-test" stroke="none" stroke-width="1" fill="none" fill-rule="evenodd">
        <g id="Illustration-stage-1-Copy" transform="translate(87.000000, 90.000000) scale(-1, 1) translate(-87.000000, -90.000000) translate(-11.000000, -5.000000)">
            <g id="Group-2">
                <g id="Plant" transform="translate(45.548148, 0.000000)" fill-rule="nonzero">
                    <g id="Oval" transform="translate(52.993394, 32.450934) rotate(39.000000) translate(-52.993394, -32.450934) ">
                        <use fill="#1697C0" xlink:href="#path-2"></use>
                        <use fill="url(#linearGradient-1)" xlink:href="#path-2"></use>
                    </g>
                    <g id="Oval-Copy-2" transform="translate(47.500410, 69.841113) rotate(46.000000) translate(-47.500410, -69.841113) ">
                        <use fill="#1697C0" xlink:href="#path-3"></use>
                        <use fill="url(#linearGradient-1)" xlink:href="#path-3"></use>
                    </g>
                    <g id="Oval-Copy-11" transform="translate(18.289561, 51.341395) rotate(-26.000000) translate(-18.289561, -51.341395) ">
                        <use fill="#1697C0" xlink:href="#path-4"></use>
                        <use fill="url(#linearGradient-1)" xlink:href="#path-4"></use>
                    </g>
                    <g id="Oval-Copy-3" transform="translate(46.809282, 97.908305) rotate(41.000000) translate(-46.809282, -97.908305) ">
                        <use fill="#1697C0" xlink:href="#path-5"></use>
                        <use fill="url(#linearGradient-1)" xlink:href="#path-5"></use>
                    </g>
                    <g id="Oval-Copy-10" transform="translate(22.914945, 94.371571) rotate(-31.000000) translate(-22.914945, -94.371571) ">
                        <use fill="#1697C0" xlink:href="#path-6"></use>
                        <use fill="url(#linearGradient-1)" xlink:href="#path-6"></use>
                    </g>
                    <g id="Oval-Copy-4" transform="translate(48.541958, 120.158454) rotate(37.000000) translate(-48.541958, -120.158454) ">
                        <use fill="#1697C0" xlink:href="#path-7"></use>
                        <use fill="url(#linearGradient-1)" xlink:href="#path-7"></use>
                    </g>
                    <g id="Oval-Copy-5" transform="translate(45.169307, 149.028800) rotate(46.000000) translate(-45.169307, -149.028800) ">
                        <use fill="#1697C0" xlink:href="#path-8"></use>
                        <use fill="url(#linearGradient-1)" xlink:href="#path-8"></use>
                    </g>
                    <g id="Oval-Copy-8" transform="translate(20.968636, 141.819653) rotate(-37.000000) translate(-20.968636, -141.819653) ">
                        <use fill="#1697C0" xlink:href="#path-9"></use>
                        <use fill="url(#linearGradient-1)" xlink:href="#path-9"></use>
                    </g>
                    <g id="Oval-Copy-9" transform="translate(24.415404, 120.158454) rotate(-37.000000) translate(-24.415404, -120.158454) ">
                        <use fill="#1697C0" xlink:href="#path-10"></use>
                        <use fill="url(#linearGradient-1)" xlink:href="#path-10"></use>
                    </g>
                    <path d="M33.6059861,56.6086197 C40.4900348,44.8683836 47.0310086,35.8185874 53.2289075,29.4592311" id="Path" stroke="url(#linearGradient-11)" stroke-width="0.864"></path>
                    <path d="M29.66726,86.6447973 C37.4357908,79.5302605 44.4190057,72.793314 50.6169046,66.4339577 C56.8148034,60.0746013 49.8315886,66.8115479 29.66726,86.6447973 Z" id="Path-Copy" stroke="url(#linearGradient-11)" stroke-width="0.864"></path>
                    <path d="M32.7442941,113.491017 C39.6103915,106.385592 46.1423896,99.6532012 52.3402885,93.2938448 C58.5381873,86.9344885 52.0061892,93.6668793 32.7442941,113.491017 Z" id="Path-Copy-2" stroke="url(#linearGradient-11)" stroke-width="0.864"></path>
                    <path d="M37.0527539,133.787638 L53.155969,115.23758 L37.0527539,133.787638 Z" id="Path-Copy-3" stroke="url(#linearGradient-11)" stroke-width="0.864"></path>
                    <path d="M31.0209102,159.578045 L49.326314,146.429707 L31.0209102,159.578045 Z" id="Path-Copy-4" stroke="url(#linearGradient-11)" stroke-width="0.864"></path>
                    <path d="M18.9572229,132.700558 L36.0241555,113.504685 L18.9572229,132.700558 Z" id="Path-Copy-5" stroke="url(#linearGradient-11)" stroke-width="0.864" transform="translate(27.490689, 123.102621) scale(-1, 1) translate(-27.490689, -123.102621) "></path>
                    <path d="M17.233839,105.29525 L31.6401131,86.6447973 L17.233839,105.29525 Z" id="Path-Copy-6" stroke="url(#linearGradient-11)" stroke-width="0.864" transform="translate(24.436976, 95.970023) scale(-1, 1) translate(-24.436976, -95.970023) "></path>
                    <path d="M14.5372553,69.8146999 L29.66726,44.2131279 L14.5372553,69.8146999 Z" id="Path-Copy-7" stroke="url(#linearGradient-11)" stroke-width="0.864" transform="translate(22.102258, 57.013914) scale(-1, 1) translate(-22.102258, -57.013914) "></path>
                    <path d="M35.6943218,48.4901885 C29.8500229,63.416114 27.8972769,78.1624107 29.8360838,92.7290784 C32.7442941,114.57908 36.6085447,128.144848 35.6943218,140.278586 C35.0848399,148.367745 30.2483681,162.611493 21.1849063,183.009829" id="Path-12" stroke="#107290" stroke-width="3.456" stroke-linecap="round"></path>
                </g>
                <g id="Path-21" fill-rule="nonzero" transform="translate(92.130980, 96.343271) rotate(237.000000) translate(-92.130980, -96.343271) ">
                    <use fill-opacity="0.1" fill="#15B9ED" style="mix-blend-mode: lighten;" xlink:href="#path-13"></use>
                    <use fill-opacity="0.5" fill="url(#radialGradient-12)" style="mix-blend-mode: multiply;" xlink:href="#path-13"></use>
                </g>
                <g id="Path-22" fill-rule="nonzero" transform="translate(127.807100, 96.627448) rotate(-97.000000) translate(-127.807100, -96.627448) ">
                    <use fill-opacity="0.1" fill="#15B9ED" style="mix-blend-mode: lighten;" xlink:href="#path-15"></use>
                    <use fill-opacity="0.5" fill="url(#radialGradient-14)" style="mix-blend-mode: multiply;" xlink:href="#path-15"></use>
                </g>
                <g id="Main-person" transform="translate(70.696296, 65.525299)">
                    <g transform="translate(0.176748, 0.405030)">
                        <path d="M40.1597838,0.280739441 L38.6393524,7.13742031 C39.8016433,18.4958364 43.0289695,23.9733527 48.321331,23.569969 C53.6136924,23.1665854 56.4390563,18.6851797 56.7974225,10.125752 L56.5989789,3.53989704 L40.1597838,0.280739441 Z" id="Neck" fill="#D0AC86" fill-rule="nonzero"></path>
                        <g id="Right-arm" transform="translate(60.024689, 14.682340)" fill-rule="nonzero">
                            <path d="M10.7398984,38.7895806 L18.6040897,39.0366846 C18.6051672,48.8544993 18.9840385,54.8266076 19.7407035,56.9530095 C20.8757011,60.1426123 22.4345049,75.3547628 20.7574723,79.4329278 C19.0804396,83.5110929 12.7995837,86.2643775 9.66492043,83.1344933 C6.53025712,80.0046091 7.85802821,61.0532747 9.2997349,56.9518618 C10.2608727,54.2175865 10.7409272,48.1634928 10.7398984,38.7895806 Z" id="Path-79" fill="#EEC498" transform="translate(14.620612, 61.637803) rotate(-176.000000) translate(-14.620612, -61.637803) "></path>
                            <g id="Group" transform="translate(14.789078, 25.907391) rotate(5.000000) translate(-14.789078, -25.907391) translate(2.278222, 1.036012)">
                                <g id="Sleeve-Copy" transform="translate(12.035108, 24.648315) scale(-1, 1) rotate(6.000000) translate(-12.035108, -24.648315) ">
                                    <use fill="#18B0E1" xlink:href="#path-17"></use>
                                    <use fill="url(#linearGradient-16)" xlink:href="#path-17"></use>
                                </g>
                                <path d="M7.77613156,42.5064016 L23.327471,42.5015888 C23.9537619,42.5014196 24.4616081,43.0089915 24.4617773,43.6352824 C24.4617773,43.6354865 24.4617773,43.6356905 24.4617773,43.6358946 L24.4596284,47.063359 C24.4594596,47.6894108 23.9519866,48.1968839 23.3259348,48.1970531 L7.77459552,48.2024782 C7.14830464,48.2026474 6.64045842,47.6950755 6.64028924,47.0687846 C6.64028919,47.0685805 6.64028919,47.0683765 6.64028924,47.0681724 L6.64243809,43.640708 C6.64260695,43.0146562 7.1500799,42.507183 7.77613173,42.5070139 Z" id="Rectangle-Copy" fill="#1697C0" transform="translate(15.551033, 45.352033) rotate(-10.000000) translate(-15.551033, -45.352033) "></path>
                            </g>
                        </g>
                        <g id="Torso" transform="translate(16.426254, 5.569164)">
                            <mask id="mask-19" fill="white">
                                <use xlink:href="#path-18"></use>
                            </mask>
                            <use id="Mask" fill="#15B9ED" fill-rule="nonzero" xlink:href="#path-18"></use>
                            <path d="M32.306752,15.188628 C31.826535,24.9125245 31.826535,31.6727175 32.306752,35.4692069 C33.0270775,41.163941 33.4630566,54.6071249 33.4630566,68.8554028 C33.4630566,78.3542548 33.0776217,86.6657132 32.306752,93.7897779" id="Path-77" stroke="#1697C0" stroke-width="1.134" stroke-linecap="round" fill-rule="nonzero" mask="url(#mask-19)"></path>
                            <path d="M25.1224864,16.3277751 C27.2106719,12.914023 28.6976031,11.2071469 29.58328,11.2071469 C29.4743039,10.0619138 28.5281441,8.85763622 26.7448007,7.594314 L25.1224864,16.3277751 Z" id="Path-75" fill="#1483A6" fill-rule="nonzero" mask="url(#mask-19)"></path>
                            <path d="M33.3622806,13.8083655 C35.9082602,13.0097249 37.4876281,13.0097249 38.1003842,13.8083655 C38.7131404,14.607006 37.8470089,13.4216588 35.5019897,10.2523239 L33.3622806,13.8083655 Z" id="Path-76" fill="#1483A6" fill-rule="nonzero" mask="url(#mask-19)"></path>
                        </g>
                        <path d="M38.4328364,5.37930575 C36.7746273,5.61648104 35.5838976,6.40925266 34.8606472,7.75762061 C34.1373968,9.10598856 36.2986332,14.0722384 41.3443564,22.6563701 C42.4036478,18.4583266 43.6400259,16.1695068 45.0534908,15.7899105 C44.6615019,15.0515304 42.4546171,11.5813289 38.4328364,5.37930575 Z" id="Path-74" fill="#1697C0" fill-rule="nonzero"></path>
                        <path d="M54.7460725,7.80841753 C52.8237305,7.94504776 51.5009343,8.68754686 50.7776839,10.0359148 C50.0544335,11.3842828 52.2156699,16.3505326 57.2613931,24.9346643 C58.6192031,20.3570246 59.8555813,18.0682047 60.9705275,18.0682047 C62.0854738,18.0682047 60.0106555,14.6482757 54.7460725,7.80841753 Z" id="Path-74-Copy" fill="#1697C0" fill-rule="nonzero" transform="translate(55.952245, 16.371541) scale(-1, 1) translate(-55.952245, -16.371541) "></path>
                        <path d="M2.91380609,67.1068025 C2.68949172,74.2823198 3.54395238,80.7759079 5.47718806,86.5875668 C8.37704158,95.3050551 8.85574461,94.599248 12.0531409,103.021907 C11.7736529,105.598585 13.4674982,109.060757 17.1346768,113.408422 L23.7302495,105.806163 C22.0732089,101.721408 19.5778849,98.8533374 16.2442778,97.2019497 C14.340253,92.6035012 16.2442778,89.1415184 16.2442778,81.6425242 C16.2442778,76.6431947 15.5430196,70.6509085 14.1405033,63.6656657 L2.91380609,67.1068025 Z" id="arm" fill="#EEC498" fill-rule="nonzero"></path>
                        <g id="Sleeve" fill-rule="nonzero">
                            <use fill="#18B0E1" xlink:href="#path-21"></use>
                            <use fill="url(#linearGradient-20)" xlink:href="#path-21"></use>
                        </g>
                        <path d="M1.814534,64.6336246 L16.6069223,64.6354998 C17.2331159,64.6355686 17.7407289,65.1431817 17.7407976,65.7693753 L17.741672,69.1970671 C17.7417407,69.823358 17.2340874,70.3311228 16.6077965,70.3311915 C16.6077134,70.3311915 16.6076304,70.3311915 16.6075474,70.3311915 L1.81515913,70.3290673 C1.18896551,70.3289985 0.681352518,69.8213854 0.681283793,69.1951917 L0.680409386,65.7675 C0.68034065,65.1412091 1.18799402,64.6334443 1.81428492,64.6333755 C1.81436796,64.6333755 1.81445099,64.6333755 1.81453403,64.6333755 Z" id="Rectangle" fill="#1697C0" fill-rule="nonzero" transform="translate(9.211041, 67.482284) rotate(4.000000) translate(-9.211041, -67.482284) "></path>
                        <path d="M27.8971841,35.1869882 L37.0026889,35.1869882 C37.6289798,35.1869882 38.1366889,35.6946973 38.1366889,36.3209882 L38.1366889,37.4652824 L26.7631841,37.4652824 L26.7631841,36.3209882 C26.7631841,35.6946973 27.2708932,35.1869882 27.8971841,35.1869882 Z" id="pocket" fill-opacity="0.6" fill="#1697C0" fill-rule="nonzero"></path>
                    </g>
                </g>
                <g id="Head" transform="translate(102.583918, 32.515347)">
                    <polygon id="Path-83" fill="#252928" fill-rule="nonzero" points="27.9700683 8.69270636 27.3056174 10.8851834 25.8096315 8.69270636"></polygon>
                    <path d="M17.5164825,40.5233483 C20.4601752,40.5233483 24.6261003,39.7003637 26.7603805,37.1183858 C29.6246192,33.6533294 28.9409933,29.6166414 28.9409933,23.4252121 C28.9409933,18.4752137 28.6944568,12.4726104 26.7603805,9.02682956 C24.4727156,4.95108988 21.2522787,3.0377256 17.5164825,3.0377256 C14.4410357,3.0377256 10.7269796,3.76890546 8.55131278,6.65907651 C5.84982456,10.2477523 5.03347197,15.4014881 5.03347197,21.3864247 C5.03347197,26.504124 6.4988821,32.7243542 8.55131278,36.1099267 C10.8321624,39.8722861 13.887689,40.5233483 17.5164825,40.5233483 Z" id="Face" fill="#EEC498" fill-rule="nonzero"></path>
                    <ellipse id="Oval-Copy-6" fill-opacity="0.3" fill="#E84964" fill-rule="nonzero" style="mix-blend-mode: darken;" filter="url(#filter-22)" cx="26.1512675" cy="25.2999146" rx="2.49394924" ry="2.51697264"></ellipse>
                    <ellipse id="Oval-Copy-7" fill-opacity="0.3" fill="#E84964" fill-rule="nonzero" style="mix-blend-mode: darken;" filter="url(#filter-23)" cx="10.0441572" cy="24.2873394" rx="2.49394924" ry="2.51697264"></ellipse>
                    <path d="M8.05078793,6.0754512 C5.45444093,10.141653 4.29411979,14.5690282 4.56982449,19.3575767 C5.41499788,19.3776615 6.16811986,19.244508 6.82919045,18.9581163 C8.00773187,16.7261314 8.73022887,15.0028755 8.99668146,13.7883487 C9.46237704,11.6656455 8.28545612,8.06438324 8.99668146,7.64615436 C10.3183093,6.86898445 10.0030115,6.34541673 8.05078793,6.0754512 Z" id="Path-80" fill="#252928" fill-rule="nonzero"></path>
                    <g id="Glasses" transform="translate(4.530125, 13.163478)" fill-rule="nonzero" stroke="#E84964" stroke-width="0.504">
                        <path d="M12.4631828,3.62983036 C13.8402395,3.01199166 14.9014806,3.01199166 15.646906,3.62983036" id="Path-84"></path>
                        <path d="M5.49334921,3.62983036 L0,6.19607348" id="Path-85"></path>
                        <ellipse id="Oval" cx="9.06024955" cy="4.0503008" rx="3.52343038" ry="3.5440132"></ellipse>
                        <ellipse id="Oval-Copy" cx="19.1987354" cy="3.92900412" rx="3.52343038" ry="3.5440132"></ellipse>
                    </g>
                    <path d="M3.8254387,28.234143 C5.93817016,28.234143 7.6508774,24.9943036 7.6508774,22.7664774 C7.6508774,20.5386512 5.16431174,19.4062014 3.8254387,18.7326412 C2.48656566,18.059081 0,20.5386512 0,22.7664774 C0,24.9943036 1.71270725,28.234143 3.8254387,28.234143 Z" id="Ear" fill="#EEC498" fill-rule="nonzero"></path>
                    <g id="Path-81" transform="translate(5.033472, 3.037726)">
                        <mask id="mask-25" fill="white">
                            <use xlink:href="#path-24"></use>
                        </mask>
                        <g id="Mask" fill-rule="nonzero"></g>
                        <path d="M1.7130015,15.7341772 C2.0855862,19.7665359 3.07356382,22.0516377 4.67693438,22.5894825 C7.0819902,23.3962497 9.38001729,20.5820481 14.7103218,20.8476983 C20.0406264,21.1133485 18.4067426,21.8259703 21.8515602,22.5894825 C23.0058585,21.1249887 23.7149696,18.3013034 23.9788934,14.1184266 L25.9118943,29.0436204 L24.6713532,33.8842238 L14.7103218,38.5973033 L3.5501707,38.5973033 L0.382753598,31.4639221 L6.75015599e-14,16.3218255 L1.7130015,15.7341772 Z" fill="#252928" fill-rule="nonzero" mask="url(#mask-25)"></path>
                    </g>
                    <g id="Hair" transform="translate(7.550208, 0.000000)" fill="#252928" fill-rule="nonzero">
                        <path d="M0.327371511,5.12051128 C0.493610941,7.09487765 2.54235348,8.22286771 6.47359913,8.50448143 C12.3704676,8.92690202 19.4600187,9.84854876 21.5989497,8.37637259 C23.7378808,6.90419642 23.1024172,3.00339035 18.8859807,1.61353447 C14.6695443,0.223678579 6.84873473,-0.806767233 3.58805312,1.21015085 C1.41426538,2.5547629 0.327371511,3.85821638 0.327371511,5.12051128 Z" id="Path-78"></path>
                    </g>
                    <path d="M16.6104575,22.782942 C18.4314209,23.5224786 19.971873,23.5224786 21.231814,22.782942" id="Path-73" stroke="#C1915F" stroke-width="0.504" stroke-linecap="round" fill-rule="nonzero"></path>
                    <path d="M15.6191916,28.1672902 C17.4403951,28.9072417 18.9808995,28.9076139 20.2407049,28.1684067" id="Path-73-Copy" stroke="#E84964" stroke-width="0.5" stroke-linecap="round" fill-rule="nonzero" transform="translate(17.929948, 28.444912) rotate(8.000000) translate(-17.929948, -28.444912) "></path>
                    <path d="M12.0803327,17.720066 C13.1996249,18.3937037 14.1793823,18.3937037 15.0196051,17.720066" id="Path-82" stroke="#735638" stroke-width="0.5" stroke-linecap="round" fill-rule="nonzero"></path>
                    <path d="M22.1472767,17.720066 C23.2665688,18.3937037 24.2463263,18.3937037 25.0865491,17.720066" id="Path-82-Copy" stroke="#735638" stroke-width="0.5" stroke-linecap="round" fill-rule="nonzero"></path>
                </g>
            </g>
        </g>
    </g>
</svg>