<?xml version="1.0" encoding="UTF-8"?>
<svg width="282px" height="48px" viewBox="0 0 282 48" version="1.1" xmlns="http://www.w3.org/2000/svg" xmlns:xlink="http://www.w3.org/1999/xlink">
    <!-- Generator: Sketch 52.6 (67491) - http://www.bohemiancoding.com/sketch -->
    <title>Group 6</title>
    <desc>Created with Sketch.</desc>
    <g id="First-test" stroke="none" stroke-width="1" fill="none" fill-rule="evenodd">
        <g id="Group-6">
            <path d="M11.976,1.328 L16.488,14.576 L20.88,1.328 C20.976,1.016 21.144,0.824 21.504,0.824 C21.864,0.824 22.176,1.064 22.176,1.472 C22.176,1.544 22.152,1.664 22.128,1.76 L17.136,16.736 C17.04,17 16.872,17.192 16.488,17.192 C16.128,17.192 15.936,17.024 15.84,16.736 L11.328,3.44 L6.816,16.736 C6.72,17.024 6.528,17.192 6.168,17.192 C5.784,17.192 5.616,17 5.52,16.736 L0.528,1.76 C0.504,1.664 0.48,1.544 0.48,1.472 C0.48,1.064 0.792,0.824 1.152,0.824 C1.512,0.824 1.68,1.016 1.776,1.328 L6.168,14.576 L10.68,1.328 C10.776,1.016 10.992,0.824 11.328,0.824 C11.664,0.824 11.88,1.016 11.976,1.328 Z" id="Path" fill="#485156"></path>
            <path d="M27.536,6.296 C30.488,6.296 32.576,8.6 32.576,11.672 C32.576,12.008 32.288,12.272 31.976,12.272 L23.648,12.272 C23.72,14.192 25.16,16.064 27.68,16.064 C29.024,16.064 30.08,15.584 30.944,14.552 C31.064,14.408 31.232,14.24 31.496,14.24 C31.88,14.24 32.096,14.528 32.096,14.84 C32.096,15.008 32.048,15.128 31.952,15.272 C31.136,16.4 29.576,17.288 27.68,17.288 C24.248,17.288 22.184,14.696 22.184,11.792 C22.184,8.864 24.368,6.296 27.536,6.296 Z" id="Path" fill="#485156"></path>
            <path d="M31.256,11.072 C31.064,9.056 29.6,7.496 27.536,7.496 C25.424,7.496 23.888,9.104 23.696,11.072 L31.256,11.072 Z" id="Path" fill="#FFFFFF"></path>
            <path d="M36.952,2.528 C36.952,3.944 36.784,5.072 36.304,6.368 C36.184,6.704 36.016,7.016 35.56,7.016 C35.176,7.016 34.936,6.776 34.936,6.44 C34.936,6.248 35.008,6.104 35.056,5.96 C35.512,4.616 35.656,3.704 35.656,2.528 L35.656,1.496 C35.656,1.112 35.896,0.824 36.304,0.824 C36.712,0.824 36.952,1.112 36.952,1.496 L36.952,2.528 Z" id="Path" fill="#485156"></path>
            <path d="M45.408,7.016 C45.408,7.448 45.072,7.664 44.688,7.664 C42.624,7.664 41.232,9.632 41.232,12.32 L41.232,16.472 C41.232,16.856 40.92,17.192 40.512,17.192 C40.128,17.192 39.792,16.856 39.792,16.472 L39.792,7.112 C39.792,6.68 40.104,6.392 40.512,6.392 C40.944,6.392 41.232,6.704 41.232,7.112 L41.232,8.792 C41.688,7.424 42.984,6.392 44.688,6.392 C45.096,6.392 45.408,6.632 45.408,7.016 Z" id="Path" fill="#485156"></path>
            <path d="M51.584,6.296 C54.536,6.296 56.624,8.6 56.624,11.672 C56.624,12.008 56.336,12.272 56.024,12.272 L47.696,12.272 C47.768,14.192 49.208,16.064 51.728,16.064 C53.072,16.064 54.128,15.584 54.992,14.552 C55.112,14.408 55.28,14.24 55.544,14.24 C55.928,14.24 56.144,14.528 56.144,14.84 C56.144,15.008 56.096,15.128 56,15.272 C55.184,16.4 53.624,17.288 51.728,17.288 C48.296,17.288 46.232,14.696 46.232,11.792 C46.232,8.864 48.416,6.296 51.584,6.296 Z" id="Path" fill="#485156"></path>
            <path d="M55.304,11.072 C55.112,9.056 53.648,7.496 51.584,7.496 C49.472,7.496 47.936,9.104 47.744,11.072 L55.304,11.072 Z" id="Path" fill="#FFFFFF"></path>
            <path d="M74.328,14.384 C74.328,16.064 72.84,17.288 70.176,17.288 C68.592,17.288 67.176,16.784 66.144,15.92 C65.952,15.776 65.856,15.56 65.856,15.368 C65.856,15.056 66.096,14.84 66.408,14.84 C66.648,14.84 66.816,14.936 66.96,15.056 C67.872,15.776 69.072,16.184 70.248,16.184 C71.928,16.184 72.936,15.512 72.936,14.456 C72.936,13.256 71.712,12.896 70.176,12.464 C66.984,11.576 65.976,10.592 65.976,9.08 C65.976,7.208 67.632,6.296 70.104,6.296 C71.184,6.296 72.336,6.584 73.344,7.136 C73.728,7.328 73.992,7.544 73.992,7.856 C73.992,8.168 73.776,8.408 73.392,8.408 C73.2,8.408 73.032,8.312 72.816,8.192 C72.048,7.784 71.04,7.472 70.08,7.472 C68.52,7.472 67.368,7.928 67.368,9.032 C67.368,10.016 68.04,10.52 70.296,11.168 C72.672,11.864 74.328,12.488 74.328,14.384 Z" id="Path" fill="#485156"></path>
            <path d="M85.664,16.472 C85.664,16.856 85.4,17.192 84.944,17.192 C84.488,17.192 84.224,16.856 84.224,16.472 L84.224,15.944 C83.408,16.856 82.112,17.288 80.648,17.288 C78.08,17.288 76.448,15.944 76.448,14.144 C76.448,12.224 78.2,10.952 80.864,10.952 C82.424,10.952 83.672,11.6 84.224,12.248 L84.224,10.832 C84.224,8.552 83.096,7.52 80.744,7.52 C79.592,7.52 78.728,7.76 77.792,8.144 C77.72,8.168 77.6,8.216 77.456,8.216 C77.072,8.216 76.832,8 76.832,7.616 C76.832,7.376 77,7.184 77.192,7.088 C78.128,6.608 79.256,6.296 80.864,6.296 C83.888,6.296 85.664,7.904 85.664,10.808 L85.664,16.472 Z" id="Path" fill="#485156"></path>
            <path d="M84.224,14.144 C84.224,12.824 82.592,12.032 80.96,12.032 C79.088,12.032 77.888,12.872 77.888,14.144 C77.888,15.44 79.088,16.232 80.864,16.232 C82.616,16.232 84.224,15.416 84.224,14.144 Z" id="Path" fill="#FFFFFF"></path>
            <path d="M88.672,6.824 L92.272,14.96 L95.872,6.824 C95.992,6.536 96.16,6.392 96.496,6.392 C96.904,6.392 97.168,6.68 97.168,7.04 C97.168,7.16 97.12,7.304 97.072,7.4 L92.872,16.784 C92.752,17.024 92.608,17.192 92.272,17.192 C91.936,17.192 91.792,17.024 91.672,16.784 L87.472,7.4 C87.424,7.304 87.376,7.16 87.376,7.04 C87.376,6.68 87.64,6.392 88.048,6.392 C88.384,6.392 88.552,6.536 88.672,6.824 Z" id="Path" fill="#485156"></path>
            <path d="M100.488,16.472 C100.488,16.88 100.176,17.192 99.7679999,17.192 C99.3599999,17.192 99.0479999,16.88 99.0479999,16.472 L99.0479999,7.112 C99.0479999,6.704 99.3599999,6.392 99.7679999,6.392 C100.176,6.392 100.488,6.704 100.488,7.112 L100.488,16.472 Z" id="Path" fill="#485156"></path>
            <path d="M98.8559999,3.416 C98.8559999,2.912 99.2639999,2.504 99.7679999,2.504 C100.272,2.504 100.68,2.912 100.68,3.416 C100.68,3.92 100.272,4.328 99.7679999,4.328 C99.2639999,4.328 98.8559999,3.92 98.8559999,3.416 Z" id="Path" fill="#485156"></path>
            <path d="M113.768,11.12 L113.768,16.472 C113.768,16.88 113.456,17.192 113.048,17.192 C112.64,17.192 112.328,16.88 112.328,16.472 L112.328,11.144 C112.328,8.984 111.2,7.616 108.968,7.616 C106.928,7.616 105.368,9.104 105.368,11.456 L105.368,16.472 C105.368,16.88 105.056,17.192 104.648,17.192 C104.24,17.192 103.928,16.88 103.928,16.472 L103.928,7.112 C103.928,6.704 104.24,6.392 104.648,6.392 C105.056,6.392 105.368,6.704 105.368,7.112 L105.368,8.36 C106.136,7.04 107.528,6.296 109.28,6.296 C112.064,6.296 113.768,8.336 113.768,11.12 Z" id="Path" fill="#485156"></path>
            <path d="M125.968,14.744 C125.128,16.112 123.448,16.952 121.744,16.952 C118.816,16.952 116.416,14.864 116.416,11.624 C116.416,8.384 118.816,6.296 121.744,6.296 C123.88,6.296 125.344,7.472 125.968,8.504 L125.968,7.112 C125.968,6.704 126.28,6.392 126.688,6.392 C127.096,6.392 127.408,6.704 127.408,7.112 L127.408,16.16 C127.408,19.4 125.728,21.68 121.888,21.68 C120.016,21.68 118.552,21.176 117.616,20.6 C117.4,20.48 117.184,20.288 117.184,19.976 C117.184,19.64 117.424,19.448 117.736,19.448 C117.952,19.448 118.168,19.544 118.36,19.64 C119.344,20.168 120.496,20.504 121.888,20.504 C124.864,20.504 125.968,18.704 125.968,16.256 L125.968,14.744 Z" id="Path" fill="#485156"></path>
            <path d="M117.832,11.624 C117.832,14.144 119.488,15.776 121.888,15.776 C124.192,15.776 125.968,13.88 125.968,11.624 C125.968,9.368 124.192,7.472 121.888,7.472 C119.488,7.472 117.832,9.104 117.832,11.624 Z" id="Path" fill="#FFFFFF"></path>
            <path d="M139.088,7.112 L139.088,8.504 C140,7.136 141.464,6.296 143.384,6.296 C146.312,6.296 148.64,8.6 148.64,11.792 C148.64,14.984 146.312,17.288 143.384,17.288 C141.464,17.288 140,16.448 139.088,15.08 L139.088,20.96 C139.088,21.368 138.776,21.68 138.368,21.68 C137.96,21.68 137.648,21.368 137.648,20.96 L137.648,7.112 C137.648,6.704 137.96,6.392 138.368,6.392 C138.776,6.392 139.088,6.704 139.088,7.112 Z" id="Path" fill="#485156"></path>
            <path d="M147.2,11.792 C147.2,9.296 145.568,7.52 143.168,7.52 C140.696,7.52 139.088,9.464 139.088,11.792 C139.088,14.12 140.696,16.064 143.168,16.064 C145.568,16.064 147.2,14.288 147.2,11.792 Z" id="Path" fill="#FFFFFF"></path>
            <path d="M156.088,6.296 C159.04,6.296 161.128,8.6 161.128,11.672 C161.128,12.008 160.84,12.272 160.528,12.272 L152.2,12.272 C152.272,14.192 153.712,16.064 156.232,16.064 C157.576,16.064 158.632,15.584 159.496,14.552 C159.616,14.408 159.784,14.24 160.048,14.24 C160.432,14.24 160.648,14.528 160.648,14.84 C160.648,15.008 160.6,15.128 160.504,15.272 C159.688,16.4 158.128,17.288 156.232,17.288 C152.8,17.288 150.736,14.696 150.736,11.792 C150.736,8.864 152.92,6.296 156.088,6.296 Z" id="Path" fill="#485156"></path>
            <path d="M159.808,11.072 C159.616,9.056 158.152,7.496 156.088,7.496 C153.976,7.496 152.44,9.104 152.248,11.072 L159.808,11.072 Z" id="Path" fill="#FFFFFF"></path>
            <path d="M174.192,11.792 C174.192,14.84 171.936,17.288 168.72,17.288 C165.504,17.288 163.248,14.84 163.248,11.792 C163.248,8.744 165.504,6.296 168.72,6.296 C171.936,6.296 174.192,8.744 174.192,11.792 Z" id="Path" fill="#485156"></path>
            <path d="M172.752,11.792 C172.752,9.344 170.976,7.544 168.72,7.544 C166.464,7.544 164.688,9.344 164.688,11.792 C164.688,14.24 166.464,16.04 168.72,16.04 C170.976,16.04 172.752,14.24 172.752,11.792 Z" id="Path" fill="#FFFFFF"></path>
            <path d="M178.4,7.112 L178.4,8.504 C179.312,7.136 180.776,6.296 182.696,6.296 C185.624,6.296 187.952,8.6 187.952,11.792 C187.952,14.984 185.624,17.288 182.696,17.288 C180.776,17.288 179.312,16.448 178.4,15.08 L178.4,20.96 C178.4,21.368 178.088,21.68 177.68,21.68 C177.272,21.68 176.96,21.368 176.96,20.96 L176.96,7.112 C176.96,6.704 177.272,6.392 177.68,6.392 C178.088,6.392 178.4,6.704 178.4,7.112 Z" id="Path" fill="#485156"></path>
            <path d="M186.512,11.792 C186.512,9.296 184.88,7.52 182.48,7.52 C180.008,7.52 178.4,9.464 178.4,11.792 C178.4,14.12 180.008,16.064 182.48,16.064 C184.88,16.064 186.512,14.288 186.512,11.792 Z" id="Path" fill="#FFFFFF"></path>
            <path d="M192.16,16.472 C192.16,16.88 191.848,17.192 191.44,17.192 C191.032,17.192 190.72,16.88 190.72,16.472 L190.72,1.544 C190.72,1.136 191.032,0.824 191.44,0.824 C191.848,0.824 192.16,1.136 192.16,1.544 L192.16,16.472 Z" id="Path" fill="#485156"></path>
            <path d="M200.28,6.296 C203.232,6.296 205.32,8.6 205.32,11.672 C205.32,12.008 205.032,12.272 204.72,12.272 L196.392,12.272 C196.464,14.192 197.904,16.064 200.424,16.064 C201.768,16.064 202.824,15.584 203.688,14.552 C203.808,14.408 203.976,14.24 204.24,14.24 C204.624,14.24 204.84,14.528 204.84,14.84 C204.84,15.008 204.792,15.128 204.696,15.272 C203.88,16.4 202.32,17.288 200.424,17.288 C196.992,17.288 194.928,14.696 194.928,11.792 C194.928,8.864 197.112,6.296 200.28,6.296 Z" id="Path" fill="#485156"></path>
            <path d="M204,11.072 C203.808,9.056 202.344,7.496 200.28,7.496 C198.168,7.496 196.632,9.104 196.44,11.072 L204,11.072 Z" id="Path" fill="#FFFFFF"></path>
            <path d="M227.8,2.24 C227.8,2.792 227.464,3.2 226.792,3.2 C226.648,3.2 226.504,3.152 226.36,3.104 C225.592,2.864 224.776,2.744 223.84,2.744 C221.728,2.744 220.864,3.68 220.864,5.888 L220.864,8.072 L225.976,8.072 C226.504,8.072 226.936,8.456 226.936,9.008 C226.936,9.584 226.504,9.968 225.976,9.968 L220.864,9.968 L220.864,15.128 L226.72,15.128 C227.248,15.128 227.68,15.464 227.68,16.064 C227.68,16.616 227.248,17 226.72,17 L215.512,17 C214.984,17 214.552,16.616 214.552,16.064 C214.552,15.464 214.984,15.128 215.512,15.128 L218.608,15.128 L218.608,9.968 L215.8,9.968 C215.272,9.968 214.84,9.584 214.84,9.008 C214.84,8.432 215.272,8.072 215.8,8.072 L218.608,8.072 L218.608,6.056 C218.608,2.6 220.24,0.728 223.792,0.728 C224.8,0.728 226.072,0.896 227.032,1.304 C227.464,1.496 227.8,1.76 227.8,2.24 Z" id="Path" fill="#15B9ED"></path>
            <path d="M236.544,16.064 C236.544,16.688 236.088,17.192 235.416,17.192 C234.744,17.192 234.288,16.688 234.288,16.064 L234.288,3.272 L231.456,4.136 C231.36,4.16 231.264,4.184 231.168,4.184 C230.616,4.184 230.04,3.8 230.04,3.152 C230.04,2.6 230.352,2.312 230.856,2.168 L234.912,0.92 C235.128,0.848 235.248,0.824 235.44,0.824 C236.088,0.824 236.544,1.232 236.544,1.976 L236.544,16.064 Z" id="Path" fill="#15B9ED"></path>
            <path d="M253.424,9.008 C253.424,13.328 250.976,17.288 246.584,17.288 C242.192,17.288 239.744,13.328 239.744,9.008 C239.744,4.688 242.192,0.728 246.584,0.728 C250.976,0.728 253.424,4.688 253.424,9.008 Z" id="Path" fill="#15B9ED"></path>
            <path d="M251.168,9.008 C251.168,5.48 249.368,2.744 246.584,2.744 C243.8,2.744 242,5.48 242,9.008 C242,12.536 243.8,15.272 246.584,15.272 C249.368,15.272 251.168,12.536 251.168,9.008 Z" id="Path" fill="#FFFFFF"></path>
            <path d="M261.28,16.064 C261.28,16.688 260.824,17.192 260.152,17.192 C259.48,17.192 259.024,16.688 259.024,16.064 L259.024,3.272 L256.192,4.136 C256.096,4.16 256,4.184 255.904,4.184 C255.352,4.184 254.776,3.8 254.776,3.152 C254.776,2.6 255.088,2.312 255.592,2.168 L259.648,0.92 C259.864,0.848 259.984,0.824 260.176,0.824 C260.824,0.824 261.28,1.232 261.28,1.976 L261.28,16.064 Z" id="Path" fill="#15B9ED"></path>
            <path d="M280.496,16.064 C280.496,16.688 280.136,17.192 279.392,17.192 C278.72,17.192 278.288,16.688 278.288,16.064 L278.288,15.848 C277.568,16.76 276.44,17.288 274.904,17.288 C272.576,17.288 270.92,15.968 270.92,14.048 C270.92,11.912 272.672,10.784 275,10.784 C276.344,10.784 277.472,11.288 278.24,12.008 L278.24,10.976 C278.24,9.08 277.448,8.216 275.36,8.216 C274.352,8.216 273.656,8.408 272.984,8.648 C272.768,8.72 272.504,8.84 272.24,8.84 C271.64,8.84 271.28,8.432 271.28,7.904 C271.28,7.352 271.736,7.064 272.336,6.824 C273.176,6.488 274.472,6.296 275.552,6.296 C278.72,6.296 280.496,7.904 280.496,10.832 L280.496,16.064 Z" id="Path" fill="#15B9ED"></path>
            <path d="M278.24,14.048 C278.24,12.968 276.944,12.344 275.672,12.344 C274.16,12.344 273.176,12.968 273.176,14.048 C273.176,15.128 274.184,15.752 275.624,15.752 C277.04,15.752 278.24,15.056 278.24,14.048 Z" id="Path" fill="#FFFFFF"></path>
            <path d="M19.416,42.064 C19.416,42.688 18.96,43.192 18.288,43.192 C17.64,43.192 17.16,42.688 17.16,42.064 L17.16,37.264 C17.16,35.608 16.368,34.336 14.592,34.336 C12.816,34.336 11.736,35.704 11.736,37.288 L11.736,42.064 C11.736,42.688 11.304,43.192 10.608,43.192 C9.936,43.192 9.48,42.688 9.48,42.064 L9.48,37.264 C9.48,35.608 8.616,34.336 6.84,34.336 C5.016,34.336 4.056,35.704 4.056,37.288 L4.056,42.064 C4.056,42.688 3.6,43.192 2.928,43.192 C2.28,43.192 1.8,42.688 1.8,42.064 L1.8,33.544 C1.8,32.872 2.232,32.392 2.928,32.392 C3.696,32.392 4.056,32.92 4.056,33.544 L4.056,34.312 C4.704,33.04 6.024,32.296 7.44,32.296 C9.168,32.296 10.464,33.16 11.112,34.432 C12.048,32.992 13.416,32.296 15.12,32.296 C18.024,32.296 19.416,34.288 19.416,37.096 L19.416,42.064 Z" id="Path" fill="#15B9ED"></path>
            <path d="M32.816,37.792 C32.816,40.816 30.656,43.288 27.32,43.288 C23.984,43.288 21.824,40.816 21.824,37.792 C21.824,34.768 23.984,32.296 27.32,32.296 C30.656,32.296 32.816,34.768 32.816,37.792 Z" id="Path" fill="#15B9ED"></path>
            <path d="M30.56,37.792 C30.56,35.848 29.432,34.216 27.32,34.216 C25.208,34.216 24.08,35.848 24.08,37.792 C24.08,39.736 25.208,41.368 27.32,41.368 C29.432,41.368 30.56,39.736 30.56,37.792 Z" id="Path" fill="#FFFFFF"></path>
            <path d="M45.4,42.064 C45.4,42.664 44.992,43.192 44.272,43.192 C43.6,43.192 43.144,42.688 43.144,42.064 L43.144,37.264 C43.144,35.584 42.232,34.336 40.432,34.336 C38.632,34.336 37.6,35.656 37.6,37.288 L37.6,42.064 C37.6,42.688 37.12,43.192 36.472,43.192 C35.8,43.192 35.344,42.688 35.344,42.064 L35.344,33.544 C35.344,32.824 35.824,32.392 36.472,32.392 C37.096,32.392 37.6,32.752 37.6,33.544 L37.6,34.312 C38.272,33.016 39.472,32.296 41.056,32.296 C43.816,32.296 45.4,34.336 45.4,37.168 L45.4,42.064 Z" id="Path" fill="#15B9ED"></path>
            <path d="M51.936,42.064 C51.936,42.688 51.48,43.192 50.808,43.192 C50.136,43.192 49.68,42.688 49.68,42.064 L49.68,34.456 L47.856,34.456 C47.328,34.456 46.92,34.048 46.92,33.52 C46.92,32.992 47.328,32.584 47.856,32.584 L49.68,32.584 L49.68,29.44 C49.68,28.816 50.136,28.312 50.808,28.312 C51.48,28.312 51.936,28.816 51.936,29.44 L51.936,32.584 L54,32.584 C54.528,32.584 54.936,32.992 54.936,33.52 C54.936,34.048 54.528,34.456 54,34.456 L51.936,34.456 L51.936,42.064 Z" id="Path" fill="#15B9ED"></path>
            <path d="M66.392,42.064 C66.392,42.664 65.984,43.192 65.264,43.192 C64.592,43.192 64.136,42.688 64.136,42.064 L64.136,37.264 C64.136,35.584 63.224,34.336 61.424,34.336 C59.624,34.336 58.592,35.656 58.592,37.288 L58.592,42.064 C58.592,42.688 58.112,43.192 57.464,43.192 C56.792,43.192 56.336,42.688 56.336,42.064 L56.336,27.976 C56.336,27.256 56.816,26.824 57.464,26.824 C58.088,26.824 58.592,27.184 58.592,27.976 L58.592,34.312 C59.264,33.016 60.464,32.296 62.048,32.296 C64.808,32.296 66.392,34.336 66.392,37.168 L66.392,42.064 Z" id="Path" fill="#15B9ED"></path>
            <path d="M86.664,37.792 C86.664,40.84 84.408,43.288 81.192,43.288 C77.976,43.288 75.72,40.84 75.72,37.792 C75.72,34.744 77.976,32.296 81.192,32.296 C84.408,32.296 86.664,34.744 86.664,37.792 Z" id="Path" fill="#485156"></path>
            <path d="M85.224,37.792 C85.224,35.344 83.448,33.544 81.192,33.544 C78.936,33.544 77.16,35.344 77.16,37.792 C77.16,40.24 78.936,42.04 81.192,42.04 C83.448,42.04 85.224,40.24 85.224,37.792 Z" id="Path" fill="#FFFFFF"></path>
            <path d="M99.272,37.12 L99.272,42.472 C99.272,42.88 98.96,43.192 98.552,43.192 C98.144,43.192 97.832,42.88 97.832,42.472 L97.832,37.144 C97.832,34.984 96.704,33.616 94.472,33.616 C92.432,33.616 90.872,35.104 90.872,37.456 L90.872,42.472 C90.872,42.88 90.56,43.192 90.152,43.192 C89.744,43.192 89.432,42.88 89.432,42.472 L89.432,33.112 C89.432,32.704 89.744,32.392 90.152,32.392 C90.56,32.392 90.872,32.704 90.872,33.112 L90.872,34.36 C91.64,33.04 93.032,32.296 94.784,32.296 C97.568,32.296 99.272,34.336 99.272,37.12 Z" id="Path" fill="#485156"></path>
            <path d="M118.272,42.472 L118.272,41.08 C117.36,42.448 115.896,43.288 113.976,43.288 C111.048,43.288 108.72,40.984 108.72,37.792 C108.72,34.6 111.048,32.296 113.976,32.296 C115.896,32.296 117.36,33.136 118.272,34.504 L118.272,27.544 C118.272,27.136 118.584,26.824 118.992,26.824 C119.4,26.824 119.712,27.136 119.712,27.544 L119.712,42.472 C119.712,42.88 119.4,43.192 118.992,43.192 C118.584,43.192 118.272,42.88 118.272,42.472 Z" id="Path" fill="#485156"></path>
            <path d="M110.16,37.792 C110.16,40.288 111.792,42.064 114.192,42.064 C116.664,42.064 118.272,40.12 118.272,37.792 C118.272,35.464 116.664,33.52 114.192,33.52 C111.792,33.52 110.16,35.296 110.16,37.792 Z" id="Path" fill="#FFFFFF"></path>
            <path d="M127.832,32.296 C130.784,32.296 132.872,34.6 132.872,37.672 C132.872,38.008 132.584,38.272 132.272,38.272 L123.944,38.272 C124.016,40.192 125.456,42.064 127.976,42.064 C129.32,42.064 130.376,41.584 131.24,40.552 C131.36,40.408 131.528,40.24 131.792,40.24 C132.176,40.24 132.392,40.528 132.392,40.84 C132.392,41.008 132.344,41.128 132.248,41.272 C131.432,42.4 129.872,43.288 127.976,43.288 C124.544,43.288 122.48,40.696 122.48,37.792 C122.48,34.864 124.664,32.296 127.832,32.296 Z" id="Path" fill="#485156"></path>
            <path d="M131.552,37.072 C131.36,35.056 129.896,33.496 127.832,33.496 C125.72,33.496 124.184,35.104 123.992,37.072 L131.552,37.072 Z" id="Path" fill="#FFFFFF"></path>
            <path d="M137.104,42.472 C137.104,42.88 136.792,43.192 136.384,43.192 C135.976,43.192 135.664,42.88 135.664,42.472 L135.664,27.544 C135.664,27.136 135.976,26.824 136.384,26.824 C136.792,26.824 137.104,27.136 137.104,27.544 L137.104,34.504 C138.016,33.136 139.48,32.296 141.4,32.296 C144.328,32.296 146.656,34.6 146.656,37.792 C146.656,40.984 144.328,43.288 141.4,43.288 C139.48,43.288 138.016,42.448 137.104,41.08 L137.104,42.472 Z" id="Path" fill="#485156"></path>
            <path d="M145.216,37.792 C145.216,35.296 143.584,33.52 141.184,33.52 C138.712,33.52 137.104,35.464 137.104,37.792 C137.104,40.12 138.712,42.064 141.184,42.064 C143.584,42.064 145.216,40.288 145.216,37.792 Z" id="Path" fill="#FFFFFF"></path>
            <path d="M151.944,32.584 L154.368,32.584 C154.68,32.584 154.968,32.848 154.968,33.184 C154.968,33.52 154.68,33.784 154.368,33.784 L151.944,33.784 L151.944,42.472 C151.944,42.88 151.632,43.192 151.224,43.192 C150.816,43.192 150.504,42.88 150.504,42.472 L150.504,33.784 L148.368,33.784 C148.032,33.784 147.768,33.52 147.768,33.184 C147.768,32.848 148.032,32.584 148.368,32.584 L150.504,32.584 L150.504,29.224 C150.504,28.816 150.816,28.504 151.224,28.504 C151.632,28.504 151.944,28.816 151.944,29.224 L151.944,32.584 Z" id="Path" fill="#485156"></path>
            <path d="M169.024,33.016 C169.024,33.448 168.688,33.664 168.304,33.664 C166.24,33.664 164.848,35.632 164.848,38.32 L164.848,42.472 C164.848,42.856 164.536,43.192 164.128,43.192 C163.744,43.192 163.408,42.856 163.408,42.472 L163.408,33.112 C163.408,32.68 163.72,32.392 164.128,32.392 C164.56,32.392 164.848,32.704 164.848,33.112 L164.848,34.792 C165.304,33.424 166.6,32.392 168.304,32.392 C168.712,32.392 169.024,32.632 169.024,33.016 Z" id="Path" fill="#485156"></path>
            <path d="M175.2,32.296 C178.152,32.296 180.24,34.6 180.24,37.672 C180.24,38.008 179.952,38.272 179.64,38.272 L171.312,38.272 C171.384,40.192 172.824,42.064 175.344,42.064 C176.688,42.064 177.744,41.584 178.608,40.552 C178.728,40.408 178.896,40.24 179.16,40.24 C179.544,40.24 179.76,40.528 179.76,40.84 C179.76,41.008 179.712,41.128 179.616,41.272 C178.8,42.4 177.24,43.288 175.344,43.288 C171.912,43.288 169.848,40.696 169.848,37.792 C169.848,34.864 172.032,32.296 175.2,32.296 Z" id="Path" fill="#485156"></path>
            <path d="M178.92,37.072 C178.728,35.056 177.264,33.496 175.2,33.496 C173.088,33.496 171.552,35.104 171.36,37.072 L178.92,37.072 Z" id="Path" fill="#FFFFFF"></path>
            <path d="M184.472,33.112 L184.472,34.504 C185.384,33.136 186.848,32.296 188.768,32.296 C191.696,32.296 194.024,34.6 194.024,37.792 C194.024,40.984 191.696,43.288 188.768,43.288 C186.848,43.288 185.384,42.448 184.472,41.08 L184.472,46.96 C184.472,47.368 184.16,47.68 183.752,47.68 C183.344,47.68 183.032,47.368 183.032,46.96 L183.032,33.112 C183.032,32.704 183.344,32.392 183.752,32.392 C184.16,32.392 184.472,32.704 184.472,33.112 Z" id="Path" fill="#485156"></path>
            <path d="M192.584,37.792 C192.584,35.296 190.952,33.52 188.552,33.52 C186.08,33.52 184.472,35.464 184.472,37.792 C184.472,40.12 186.08,42.064 188.552,42.064 C190.952,42.064 192.584,40.288 192.584,37.792 Z" id="Path" fill="#FFFFFF"></path>
            <path d="M205.456,42.472 C205.456,42.856 205.192,43.192 204.736,43.192 C204.28,43.192 204.016,42.856 204.016,42.472 L204.016,41.944 C203.2,42.856 201.904,43.288 200.44,43.288 C197.872,43.288 196.24,41.944 196.24,40.144 C196.24,38.224 197.992,36.952 200.656,36.952 C202.216,36.952 203.464,37.6 204.016,38.248 L204.016,36.832 C204.016,34.552 202.888,33.52 200.536,33.52 C199.384,33.52 198.52,33.76 197.584,34.144 C197.512,34.168 197.392,34.216 197.248,34.216 C196.864,34.216 196.624,34 196.624,33.616 C196.624,33.376 196.792,33.184 196.984,33.088 C197.92,32.608 199.048,32.296 200.656,32.296 C203.68,32.296 205.456,33.904 205.456,36.808 L205.456,42.472 Z" id="Path" fill="#485156"></path>
            <path d="M204.016,40.144 C204.016,38.824 202.384,38.032 200.752,38.032 C198.88,38.032 197.68,38.872 197.68,40.144 C197.68,41.44 198.88,42.232 200.656,42.232 C202.408,42.232 204.016,41.416 204.016,40.144 Z" id="Path" fill="#FFFFFF"></path>
            <path d="M216.888,33.04 C216.888,33.136 216.864,33.232 216.816,33.352 C216.816,33.352 214.464,39.112 213.288,41.896 C212.352,44.128 210.84,46.288 208.704,47.56 C208.584,47.632 208.464,47.68 208.272,47.68 C207.888,47.68 207.648,47.416 207.648,47.08 C207.648,46.816 207.792,46.648 208.08,46.48 C209.4,45.568 210.384,44.584 211.344,42.928 L207.264,33.4 C207.216,33.28 207.168,33.16 207.168,33.04 C207.168,32.68 207.432,32.392 207.84,32.392 C208.176,32.392 208.344,32.56 208.464,32.848 L212.088,41.392 L215.64,32.8 C215.736,32.56 215.904,32.392 216.24,32.392 C216.648,32.392 216.888,32.68 216.888,33.04 Z" id="Path" fill="#485156"></path>
            <path d="M236.72,37.12 L236.72,42.472 C236.72,42.88 236.408,43.192 236,43.192 C235.592,43.192 235.28,42.88 235.28,42.472 L235.28,37.144 C235.28,34.984 234.2,33.616 231.968,33.616 C229.928,33.616 228.464,35.104 228.464,37.456 L228.464,42.472 C228.464,42.88 228.152,43.192 227.744,43.192 C227.336,43.192 227.024,42.88 227.024,42.472 L227.024,37.144 C227.024,34.984 225.944,33.616 223.712,33.616 C221.672,33.616 220.208,35.104 220.208,37.456 L220.208,42.472 C220.208,42.88 219.896,43.192 219.488,43.192 C219.08,43.192 218.768,42.88 218.768,42.472 L218.768,33.112 C218.768,32.704 219.08,32.392 219.488,32.392 C219.896,32.392 220.208,32.704 220.208,33.112 L220.208,34.36 C220.976,33.04 222.272,32.296 224.024,32.296 C225.944,32.296 227.36,33.328 228.008,34.72 C229.016,32.968 230.432,32.296 232.28,32.296 C235.064,32.296 236.72,34.336 236.72,37.12 Z" id="Path" fill="#485156"></path>
            <path d="M244.72,32.296 C247.672,32.296 249.76,34.6 249.76,37.672 C249.76,38.008 249.472,38.272 249.16,38.272 L240.832,38.272 C240.904,40.192 242.344,42.064 244.864,42.064 C246.208,42.064 247.264,41.584 248.128,40.552 C248.248,40.408 248.416,40.24 248.68,40.24 C249.064,40.24 249.28,40.528 249.28,40.84 C249.28,41.008 249.232,41.128 249.136,41.272 C248.32,42.4 246.76,43.288 244.864,43.288 C241.432,43.288 239.368,40.696 239.368,37.792 C239.368,34.864 241.552,32.296 244.72,32.296 Z" id="Path" fill="#485156"></path>
            <path d="M248.44,37.072 C248.248,35.056 246.784,33.496 244.72,33.496 C242.608,33.496 241.072,35.104 240.88,37.072 L248.44,37.072 Z" id="Path" fill="#FFFFFF"></path>
            <path d="M262.392,37.12 L262.392,42.472 C262.392,42.88 262.08,43.192 261.672,43.192 C261.264,43.192 260.952,42.88 260.952,42.472 L260.952,37.144 C260.952,34.984 259.824,33.616 257.592,33.616 C255.552,33.616 253.992,35.104 253.992,37.456 L253.992,42.472 C253.992,42.88 253.68,43.192 253.272,43.192 C252.864,43.192 252.552,42.88 252.552,42.472 L252.552,33.112 C252.552,32.704 252.864,32.392 253.272,32.392 C253.68,32.392 253.992,32.704 253.992,33.112 L253.992,34.36 C254.76,33.04 256.152,32.296 257.904,32.296 C260.688,32.296 262.392,34.336 262.392,37.12 Z" id="Path" fill="#485156"></path>
            <path d="M268.4,32.584 L270.824,32.584 C271.136,32.584 271.424,32.848 271.424,33.184 C271.424,33.52 271.136,33.784 270.824,33.784 L268.4,33.784 L268.4,42.472 C268.4,42.88 268.088,43.192 267.68,43.192 C267.272,43.192 266.96,42.88 266.96,42.472 L266.96,33.784 L264.824,33.784 C264.488,33.784 264.224,33.52 264.224,33.184 C264.224,32.848 264.488,32.584 264.824,32.584 L266.96,32.584 L266.96,29.224 C266.96,28.816 267.272,28.504 267.68,28.504 C268.088,28.504 268.4,28.816 268.4,29.224 L268.4,32.584 Z" id="Path" fill="#485156"></path>
            <path d="M281.056,40.384 C281.056,42.064 279.568,43.288 276.904,43.288 C275.32,43.288 273.904,42.784 272.872,41.92 C272.68,41.776 272.584,41.56 272.584,41.368 C272.584,41.056 272.824,40.84 273.136,40.84 C273.376,40.84 273.544,40.936 273.688,41.056 C274.6,41.776 275.8,42.184 276.976,42.184 C278.656,42.184 279.664,41.512 279.664,40.456 C279.664,39.256 278.44,38.896 276.904,38.464 C273.712,37.576 272.704,36.592 272.704,35.08 C272.704,33.208 274.36,32.296 276.832,32.296 C277.912,32.296 279.064,32.584 280.072,33.136 C280.456,33.328 280.72,33.544 280.72,33.856 C280.72,34.168 280.504,34.408 280.12,34.408 C279.928,34.408 279.76,34.312 279.544,34.192 C278.776,33.784 277.768,33.472 276.808,33.472 C275.248,33.472 274.096,33.928 274.096,35.032 C274.096,36.016 274.768,36.52 277.024,37.168 C279.4,37.864 281.056,38.488 281.056,40.384 Z" id="Path" fill="#485156"></path>
        </g>
    </g>
</svg>